<svg width="185" height="61" viewBox="0 0 185 61" fill="none" xmlns="http://www.w3.org/2000/svg">
<rect x="3.5" y="20.5547" width="161.54" height="35" rx="7.5" fill="white"/>
<rect x="3.5" y="20.5547" width="161.54" height="35" rx="7.5" stroke="#E4E4E7"/>
<g clip-path="url(#clip0_681_38927)">
<path d="M30.1948 29.4949C34.686 29.4949 38.3268 33.1357 38.3268 37.6269V46.6149C36.4358 46.6149 34.9028 45.0819 34.9028 43.1909V37.6269C34.9028 35.0267 32.795 32.9189 30.1948 32.9189H27.9687C26.8336 32.9189 25.7449 33.3697 24.9422 34.1724L19.1404 39.9746C18.8194 40.2956 18.6389 40.731 18.6388 41.1851V41.4789C18.6388 42.4244 19.4053 43.1909 20.3508 43.1909H28.0548C28.0548 45.0228 26.6163 46.5185 24.8072 46.6103L24.6308 46.6149H20.3508C17.5143 46.6149 15.2148 44.3154 15.2148 41.4789V41.1851C15.2149 39.8229 15.756 38.5165 16.7191 37.5533L22.5214 31.7515C23.9661 30.3067 25.9255 29.4949 27.9687 29.4949H30.1948Z" fill="#FF500B"/>
<path d="M31.0507 34.6309C32.2326 34.6309 33.1907 35.589 33.1907 36.7709V46.6149C31.2997 46.6149 29.7667 45.0819 29.7667 43.1909V38.0549H28.3356L25.5384 40.8521C25.137 41.2534 24.5927 41.4789 24.0252 41.4789H20.5551C20.3759 41.4789 20.2861 41.2622 20.4128 41.1354L26.2909 35.2578C26.6922 34.8565 27.2364 34.6309 27.8039 34.6309H31.0507Z" fill="#FF500B"/>
</g>
<path d="M149.153 47.3346C148.846 48.1746 148.42 48.7746 147.873 49.1346C147.326 49.4946 146.566 49.6746 145.593 49.6746C145.3 49.6746 145.006 49.6613 144.713 49.6346C144.433 49.6213 144.146 49.6013 143.853 49.5746V47.2346C144.12 47.2613 144.393 47.2879 144.673 47.3146C144.953 47.3413 145.233 47.3479 145.513 47.3346C145.886 47.2946 146.16 47.1479 146.333 46.8946C146.52 46.6413 146.613 46.3613 146.613 46.0546C146.613 45.8279 146.573 45.6146 146.493 45.4146L142.873 35.7146H145.893L148.233 42.7946H148.273L150.533 35.7146H153.473L149.153 47.3346Z" fill="black"/>
<path d="M132.197 35.7146H134.897V37.1546H134.957C135.317 36.5546 135.784 36.1212 136.357 35.8546C136.931 35.5746 137.517 35.4346 138.117 35.4346C138.877 35.4346 139.497 35.5412 139.977 35.7546C140.471 35.9546 140.857 36.2412 141.137 36.6146C141.417 36.9746 141.611 37.4212 141.717 37.9546C141.837 38.4746 141.897 39.0546 141.897 39.6946V46.0546H139.057V40.2146C139.057 39.3612 138.924 38.7279 138.657 38.3146C138.391 37.8879 137.917 37.6746 137.237 37.6746C136.464 37.6746 135.904 37.9079 135.557 38.3746C135.211 38.8279 135.037 39.5812 135.037 40.6346V46.0546H132.197V35.7146Z" fill="black"/>
<path d="M120.593 38.8946C120.633 38.2279 120.8 37.6746 121.093 37.2346C121.387 36.7946 121.76 36.4412 122.213 36.1746C122.667 35.9079 123.173 35.7212 123.733 35.6146C124.307 35.4946 124.88 35.4346 125.453 35.4346C125.973 35.4346 126.5 35.4746 127.033 35.5546C127.567 35.6212 128.053 35.7612 128.493 35.9746C128.933 36.1879 129.293 36.4879 129.573 36.8746C129.853 37.2479 129.993 37.7479 129.993 38.3746V43.7546C129.993 44.2212 130.02 44.6679 130.073 45.0946C130.127 45.5212 130.22 45.8412 130.353 46.0546H127.473C127.42 45.8946 127.373 45.7346 127.333 45.5746C127.307 45.4012 127.287 45.2279 127.273 45.0546C126.82 45.5212 126.287 45.8479 125.673 46.0346C125.06 46.2212 124.433 46.3146 123.793 46.3146C123.3 46.3146 122.84 46.2546 122.413 46.1346C121.987 46.0146 121.613 45.8279 121.293 45.5746C120.973 45.3212 120.72 45.0012 120.533 44.6146C120.36 44.2279 120.273 43.7679 120.273 43.2346C120.273 42.6479 120.373 42.1679 120.573 41.7946C120.787 41.4079 121.053 41.1012 121.373 40.8746C121.707 40.6479 122.08 40.4812 122.493 40.3746C122.92 40.2546 123.347 40.1612 123.773 40.0946C124.2 40.0279 124.62 39.9746 125.033 39.9346C125.447 39.8946 125.813 39.8346 126.133 39.7546C126.453 39.6746 126.707 39.5612 126.893 39.4146C127.08 39.2546 127.167 39.0279 127.153 38.7346C127.153 38.4279 127.1 38.1879 126.993 38.0146C126.9 37.8279 126.767 37.6879 126.593 37.5946C126.433 37.4879 126.24 37.4212 126.013 37.3946C125.8 37.3546 125.567 37.3346 125.313 37.3346C124.753 37.3346 124.313 37.4546 123.993 37.6946C123.673 37.9346 123.487 38.3346 123.433 38.8946H120.593ZM127.153 40.9946C127.033 41.1012 126.88 41.1879 126.693 41.2546C126.52 41.3079 126.327 41.3546 126.113 41.3946C125.913 41.4346 125.7 41.4679 125.473 41.4946C125.247 41.5212 125.02 41.5546 124.793 41.5946C124.58 41.6346 124.367 41.6879 124.153 41.7546C123.953 41.8212 123.773 41.9146 123.613 42.0346C123.467 42.1412 123.347 42.2812 123.253 42.4546C123.16 42.6279 123.113 42.8479 123.113 43.1146C123.113 43.3679 123.16 43.5812 123.253 43.7546C123.347 43.9279 123.473 44.0679 123.633 44.1746C123.793 44.2679 123.98 44.3346 124.193 44.3746C124.407 44.4146 124.627 44.4346 124.853 44.4346C125.413 44.4346 125.847 44.3412 126.153 44.1546C126.46 43.9679 126.687 43.7479 126.833 43.4946C126.98 43.2279 127.067 42.9612 127.093 42.6946C127.133 42.4279 127.153 42.2146 127.153 42.0546V40.9946Z" fill="black"/>
<path d="M113.706 44.1946C114.173 44.1946 114.56 44.1012 114.866 43.9146C115.186 43.7279 115.44 43.4879 115.626 43.1946C115.826 42.8879 115.966 42.5346 116.046 42.1346C116.126 41.7346 116.166 41.3279 116.166 40.9146C116.166 40.5012 116.12 40.0946 116.026 39.6946C115.946 39.2946 115.806 38.9412 115.606 38.6346C115.406 38.3146 115.146 38.0612 114.826 37.8746C114.52 37.6746 114.14 37.5746 113.686 37.5746C113.22 37.5746 112.826 37.6746 112.506 37.8746C112.2 38.0612 111.946 38.3079 111.746 38.6146C111.56 38.9212 111.426 39.2746 111.346 39.6746C111.266 40.0746 111.226 40.4879 111.226 40.9146C111.226 41.3279 111.266 41.7346 111.346 42.1346C111.44 42.5346 111.58 42.8879 111.766 43.1946C111.966 43.4879 112.226 43.7279 112.546 43.9146C112.866 44.1012 113.253 44.1946 113.706 44.1946ZM108.486 35.7146H111.186V37.0346H111.226C111.573 36.4746 112.013 36.0679 112.546 35.8146C113.08 35.5612 113.666 35.4346 114.306 35.4346C115.12 35.4346 115.82 35.5879 116.406 35.8946C116.993 36.2012 117.48 36.6079 117.866 37.1146C118.253 37.6212 118.54 38.2146 118.726 38.8946C118.913 39.5612 119.006 40.2612 119.006 40.9946C119.006 41.6879 118.913 42.3546 118.726 42.9946C118.54 43.6346 118.253 44.2012 117.866 44.6946C117.493 45.1879 117.02 45.5812 116.446 45.8746C115.886 46.1679 115.226 46.3146 114.466 46.3146C113.826 46.3146 113.233 46.1879 112.686 45.9346C112.153 45.6679 111.713 45.2812 111.366 44.7746H111.326V49.6746H108.486V35.7146Z" fill="black"/>
<path d="M90.4414 35.7146H93.1214V37.1146H93.1614C93.5347 36.5812 93.9814 36.1679 94.5014 35.8746C95.0347 35.5812 95.6414 35.4346 96.3214 35.4346C96.9747 35.4346 97.5681 35.5612 98.1014 35.8146C98.6481 36.0679 99.0614 36.5146 99.3414 37.1546C99.6481 36.7012 100.061 36.3012 100.581 35.9546C101.115 35.6079 101.741 35.4346 102.461 35.4346C103.008 35.4346 103.515 35.5012 103.981 35.6346C104.448 35.7679 104.848 35.9812 105.181 36.2746C105.515 36.5679 105.775 36.9546 105.961 37.4346C106.148 37.9012 106.241 38.4679 106.241 39.1346V46.0546H103.401V40.1946C103.401 39.8479 103.388 39.5212 103.361 39.2146C103.335 38.9079 103.261 38.6412 103.141 38.4146C103.021 38.1879 102.841 38.0079 102.601 37.8746C102.375 37.7412 102.061 37.6746 101.661 37.6746C101.261 37.6746 100.935 37.7546 100.681 37.9146C100.441 38.0612 100.248 38.2612 100.101 38.5146C99.9681 38.7546 99.8747 39.0346 99.8214 39.3546C99.7814 39.6612 99.7614 39.9746 99.7614 40.2946V46.0546H96.9214V40.2546C96.9214 39.9479 96.9147 39.6479 96.9014 39.3546C96.8881 39.0479 96.8281 38.7679 96.7214 38.5146C96.6281 38.2612 96.4614 38.0612 96.2214 37.9146C95.9947 37.7546 95.6547 37.6746 95.2014 37.6746C95.0681 37.6746 94.8881 37.7079 94.6614 37.7746C94.4481 37.8279 94.2347 37.9412 94.0214 38.1146C93.8214 38.2746 93.6481 38.5146 93.5014 38.8346C93.3547 39.1412 93.2814 39.5479 93.2814 40.0546V46.0546H90.4414V35.7146Z" fill="black"/>
<path d="M80.6564 40.8946C80.6564 41.3079 80.6964 41.7146 80.7764 42.1146C80.8564 42.5012 80.9897 42.8546 81.1764 43.1746C81.3764 43.4812 81.6364 43.7279 81.9564 43.9146C82.2764 44.1012 82.6764 44.1946 83.1564 44.1946C83.6364 44.1946 84.0364 44.1012 84.3564 43.9146C84.6897 43.7279 84.9497 43.4812 85.1364 43.1746C85.3364 42.8546 85.4764 42.5012 85.5564 42.1146C85.6364 41.7146 85.6764 41.3079 85.6764 40.8946C85.6764 40.4812 85.6364 40.0746 85.5564 39.6746C85.4764 39.2746 85.3364 38.9212 85.1364 38.6146C84.9497 38.3079 84.6897 38.0612 84.3564 37.8746C84.0364 37.6746 83.6364 37.5746 83.1564 37.5746C82.6764 37.5746 82.2764 37.6746 81.9564 37.8746C81.6364 38.0612 81.3764 38.3079 81.1764 38.6146C80.9897 38.9212 80.8564 39.2746 80.7764 39.6746C80.6964 40.0746 80.6564 40.4812 80.6564 40.8946ZM77.8164 40.8946C77.8164 40.0679 77.9431 39.3212 78.1964 38.6546C78.4497 37.9746 78.8097 37.4012 79.2764 36.9346C79.7431 36.4546 80.3031 36.0879 80.9564 35.8346C81.6097 35.5679 82.3431 35.4346 83.1564 35.4346C83.9697 35.4346 84.7031 35.5679 85.3564 35.8346C86.0231 36.0879 86.5897 36.4546 87.0564 36.9346C87.5231 37.4012 87.8831 37.9746 88.1364 38.6546C88.3897 39.3212 88.5164 40.0679 88.5164 40.8946C88.5164 41.7212 88.3897 42.4679 88.1364 43.1346C87.8831 43.8012 87.5231 44.3746 87.0564 44.8546C86.5897 45.3212 86.0231 45.6812 85.3564 45.9346C84.7031 46.1879 83.9697 46.3146 83.1564 46.3146C82.3431 46.3146 81.6097 46.1879 80.9564 45.9346C80.3031 45.6812 79.7431 45.3212 79.2764 44.8546C78.8097 44.3746 78.4497 43.8012 78.1964 43.1346C77.9431 42.4679 77.8164 41.7212 77.8164 40.8946Z" fill="black"/>
<path d="M73.1322 36.5746C73.0789 36.2146 72.9589 35.8879 72.7722 35.5946C72.5855 35.2879 72.3522 35.0212 72.0722 34.7946C71.7922 34.5679 71.4722 34.3946 71.1122 34.2746C70.7655 34.1412 70.3989 34.0746 70.0122 34.0746C69.3055 34.0746 68.7055 34.2146 68.2122 34.4946C67.7189 34.7612 67.3189 35.1279 67.0122 35.5946C66.7055 36.0479 66.4789 36.5679 66.3322 37.1546C66.1989 37.7412 66.1322 38.3479 66.1322 38.9746C66.1322 39.5746 66.1989 40.1612 66.3322 40.7346C66.4789 41.2946 66.7055 41.8012 67.0122 42.2546C67.3189 42.7079 67.7189 43.0746 68.2122 43.3546C68.7055 43.6212 69.3055 43.7546 70.0122 43.7546C70.9722 43.7546 71.7189 43.4612 72.2522 42.8746C72.7989 42.2879 73.1322 41.5146 73.2522 40.5546H76.2922C76.2122 41.4479 76.0055 42.2546 75.6722 42.9746C75.3389 43.6946 74.8989 44.3079 74.3522 44.8146C73.8055 45.3212 73.1655 45.7079 72.4322 45.9746C71.6989 46.2412 70.8922 46.3746 70.0122 46.3746C68.9189 46.3746 67.9322 46.1879 67.0522 45.8146C66.1855 45.4279 65.4522 44.9012 64.8522 44.2346C64.2522 43.5679 63.7922 42.7879 63.4722 41.8946C63.1522 40.9879 62.9922 40.0146 62.9922 38.9746C62.9922 37.9079 63.1522 36.9212 63.4722 36.0146C63.7922 35.0946 64.2522 34.2946 64.8522 33.6146C65.4522 32.9346 66.1855 32.4012 67.0522 32.0146C67.9322 31.6279 68.9189 31.4346 70.0122 31.4346C70.7989 31.4346 71.5389 31.5479 72.2322 31.7746C72.9389 32.0012 73.5655 32.3346 74.1122 32.7746C74.6722 33.2012 75.1322 33.7346 75.4922 34.3746C75.8522 35.0146 76.0789 35.7479 76.1722 36.5746H73.1322Z" fill="black"/>
<path d="M53.5199 40.5347H57.2199L55.4199 35.2947H55.3799L53.5199 40.5347ZM53.8199 31.7747H57.0399L62.3799 46.0547H59.1199L58.0399 42.8747H52.6999L51.5799 46.0547H48.4199L53.8199 31.7747Z" fill="black"/>
<path fill-rule="evenodd" clip-rule="evenodd" d="M165.539 35.611C169.664 35.611 173.621 33.9721 176.539 31.0547C179.456 28.1374 181.095 24.1806 181.095 20.0548C181.095 15.929 179.456 11.9722 176.539 9.05486C173.621 6.13749 169.664 4.49854 165.539 4.49854C161.413 4.49854 157.456 6.13749 154.539 9.05486C151.621 11.9722 149.982 15.929 149.982 20.0548C149.982 24.1806 151.621 28.1374 154.539 31.0547C157.456 33.9721 161.413 35.611 165.539 35.611V35.611ZM167.483 14.2212C167.483 13.7055 167.278 13.2109 166.914 12.8462C166.549 12.4815 166.054 12.2767 165.539 12.2767C165.023 12.2767 164.528 12.4815 164.164 12.8462C163.799 13.2109 163.594 13.7055 163.594 14.2212V18.1103H159.705C159.189 18.1103 158.695 18.3151 158.33 18.6798C157.965 19.0445 157.761 19.5391 157.761 20.0548C157.761 20.5705 157.965 21.0651 158.33 21.4298C158.695 21.7944 159.189 21.9993 159.705 21.9993H163.594V25.8884C163.594 26.4041 163.799 26.8987 164.164 27.2634C164.528 27.628 165.023 27.8329 165.539 27.8329C166.054 27.8329 166.549 27.628 166.914 27.2634C167.278 26.8987 167.483 26.4041 167.483 25.8884V21.9993H171.372C171.888 21.9993 172.383 21.7944 172.747 21.4298C173.112 21.0651 173.317 20.5705 173.317 20.0548C173.317 19.5391 173.112 19.0445 172.747 18.6798C172.383 18.3151 171.888 18.1103 171.372 18.1103H167.483V14.2212Z" fill="#3F3F46"/>
<defs>
<clipPath id="clip0_681_38927">
<rect width="23.54" height="17.548" fill="white" transform="translate(15 29.2808)"/>
</clipPath>
</defs>
</svg>
