<svg width="1653" height="917" viewBox="0 0 1653 917" fill="none" xmlns="http://www.w3.org/2000/svg">
<g clip-path="url(#clip0_624_39566)">
<rect width="1653" height="917" fill="#F6F4F4"/>
<rect width="62" height="917" fill="#E4E4E7"/>
<rect x="62.5" y="0.5" width="1590" height="913" fill="white"/>
<rect x="62.5" y="0.5" width="1590" height="913" stroke="#E5E7EB"/>
<mask id="path-2-inside-1_624_39566" fill="white">
<path d="M62 0H1653V102H62V0Z"/>
</mask>
<path d="M62 0H1653V102H62V0Z" fill="url(#paint0_linear_624_39566)"/>
<path d="M1653 102V101H62V102V103H1653V102Z" fill="#E7E5E4" mask="url(#path-2-inside-1_624_39566)"/>
<path d="M258.504 41V30.8182H265.027V32.3643H260.349V35.1286H264.58V36.6747H260.349V41H258.504ZM266.707 41V30.8182H270.526C271.308 30.8182 271.964 30.9541 272.494 31.2259C273.028 31.4976 273.431 31.8788 273.702 32.3693C273.978 32.8565 274.115 33.425 274.115 34.0746C274.115 34.7275 273.976 35.2943 273.697 35.7749C273.422 36.2521 273.016 36.6217 272.479 36.8835C271.942 37.142 271.283 37.2713 270.501 37.2713H267.781V35.7401H270.252C270.71 35.7401 271.084 35.6771 271.376 35.5511C271.667 35.4219 271.883 35.2346 272.022 34.9893C272.165 34.7408 272.236 34.4358 272.236 34.0746C272.236 33.7133 272.165 33.4051 272.022 33.1499C271.879 32.8913 271.662 32.6958 271.371 32.5632C271.079 32.4273 270.703 32.3594 270.242 32.3594H268.552V41H266.707ZM271.967 36.3864L274.488 41H272.43L269.954 36.3864H271.967ZM277.12 41H275.152L278.736 30.8182H281.013L284.603 41H282.634L279.914 32.9062H279.835L277.12 41ZM277.185 37.0078H282.554V38.4893H277.185V37.0078ZM285.944 30.8182H288.201L291.224 38.196H291.343L294.366 30.8182H296.623V41H294.853V34.005H294.758L291.944 40.9702H290.622L287.808 33.9901H287.714V41H285.944V30.8182ZM298.631 41V30.8182H305.253V32.3643H300.476V35.1286H304.91V36.6747H300.476V39.4538H305.293V41H298.631ZM309.278 41L306.404 30.8182H308.388L310.222 38.3004H310.317L312.276 30.8182H314.08L316.044 38.3054H316.134L317.968 30.8182H319.952L317.078 41H315.259L313.22 33.8558H313.141L311.097 41H309.278ZM329.782 35.9091C329.782 37.0062 329.576 37.9458 329.165 38.728C328.758 39.5069 328.201 40.1035 327.495 40.5178C326.792 40.9321 325.995 41.1392 325.104 41.1392C324.212 41.1392 323.413 40.9321 322.707 40.5178C322.005 40.1001 321.448 39.5019 321.037 38.723C320.629 37.9408 320.425 37.0028 320.425 35.9091C320.425 34.812 320.629 33.8741 321.037 33.0952C321.448 32.313 322.005 31.7147 322.707 31.3004C323.413 30.8861 324.212 30.679 325.104 30.679C325.995 30.679 326.792 30.8861 327.495 31.3004C328.201 31.7147 328.758 32.313 329.165 33.0952C329.576 33.8741 329.782 34.812 329.782 35.9091ZM327.928 35.9091C327.928 35.1368 327.807 34.4856 327.565 33.9553C327.326 33.4216 326.995 33.0189 326.57 32.7472C326.146 32.4721 325.657 32.3345 325.104 32.3345C324.55 32.3345 324.061 32.4721 323.637 32.7472C323.213 33.0189 322.88 33.4216 322.638 33.9553C322.399 34.4856 322.28 35.1368 322.28 35.9091C322.28 36.6813 322.399 37.3343 322.638 37.8679C322.88 38.3982 323.213 38.8009 323.637 39.076C324.061 39.3478 324.55 39.4837 325.104 39.4837C325.657 39.4837 326.146 39.3478 326.57 39.076C326.995 38.8009 327.326 38.3982 327.565 37.8679C327.807 37.3343 327.928 36.6813 327.928 35.9091ZM331.526 41V30.8182H335.344C336.126 30.8182 336.782 30.9541 337.313 31.2259C337.846 31.4976 338.249 31.8788 338.521 32.3693C338.796 32.8565 338.933 33.425 338.933 34.0746C338.933 34.7275 338.794 35.2943 338.516 35.7749C338.241 36.2521 337.835 36.6217 337.298 36.8835C336.761 37.142 336.101 37.2713 335.319 37.2713H332.6V35.7401H335.07C335.528 35.7401 335.902 35.6771 336.194 35.5511C336.486 35.4219 336.701 35.2346 336.84 34.9893C336.983 34.7408 337.054 34.4358 337.054 34.0746C337.054 33.7133 336.983 33.4051 336.84 33.1499C336.698 32.8913 336.481 32.6958 336.189 32.5632C335.897 32.4273 335.521 32.3594 335.061 32.3594H333.37V41H331.526ZM336.786 36.3864L339.306 41H337.248L334.772 36.3864H336.786ZM340.631 41V30.8182H342.476V35.4964H342.6L346.572 30.8182H348.824L344.887 35.3871L348.859 41H346.642L343.604 36.6349L342.476 37.9673V41H340.631Z" fill="#9CA3AF"/>
<path d="M261.57 56.4545V71H258.935V56.4545H261.57ZM272.228 60.4531C272.161 59.8329 271.882 59.3499 271.39 59.0043C270.902 58.6586 270.268 58.4858 269.486 58.4858C268.937 58.4858 268.466 58.5687 268.073 58.7344C267.68 58.9001 267.379 59.125 267.171 59.4091C266.963 59.6932 266.856 60.0175 266.851 60.3821C266.851 60.6851 266.92 60.9479 267.057 61.1705C267.199 61.393 267.391 61.5824 267.633 61.7386C267.874 61.8902 268.142 62.018 268.435 62.1222C268.729 62.2263 269.025 62.3139 269.323 62.3849L270.687 62.7259C271.236 62.8537 271.764 63.0265 272.27 63.2443C272.782 63.4621 273.239 63.7367 273.641 64.0682C274.048 64.3996 274.37 64.7997 274.607 65.2685C274.844 65.7372 274.962 66.2865 274.962 66.9162C274.962 67.7685 274.744 68.5189 274.309 69.1676C273.873 69.8116 273.243 70.3158 272.42 70.6804C271.6 71.0402 270.608 71.2202 269.444 71.2202C268.312 71.2202 267.33 71.045 266.496 70.6946C265.668 70.3442 265.019 69.8329 264.55 69.1605C264.086 68.4882 263.835 67.669 263.797 66.7031H266.39C266.428 67.2098 266.584 67.6312 266.858 67.9673C267.133 68.3035 267.491 68.5545 267.931 68.7202C268.376 68.8859 268.873 68.9688 269.422 68.9688C269.995 68.9688 270.497 68.8835 270.928 68.7131C271.364 68.5379 271.705 68.2964 271.951 67.9886C272.197 67.6761 272.322 67.3116 272.327 66.8949C272.322 66.5161 272.211 66.2036 271.993 65.9574C271.776 65.7064 271.47 65.4981 271.077 65.3324C270.689 65.1619 270.234 65.0104 269.714 64.8778L268.059 64.4517C266.861 64.1439 265.914 63.6776 265.218 63.0526C264.527 62.4228 264.181 61.5871 264.181 60.5455C264.181 59.6884 264.413 58.938 264.877 58.294C265.346 57.6501 265.983 57.1506 266.787 56.7955C267.592 56.4356 268.504 56.2557 269.522 56.2557C270.554 56.2557 271.458 56.4356 272.235 56.7955C273.016 57.1506 273.629 57.6454 274.074 58.2798C274.519 58.9096 274.749 59.634 274.763 60.4531H272.228ZM290.208 63.7273C290.208 65.2945 289.915 66.6368 289.328 67.7543C288.745 68.867 287.95 69.7192 286.941 70.3111C285.938 70.9029 284.799 71.1989 283.525 71.1989C282.251 71.1989 281.11 70.9029 280.102 70.3111C279.098 69.7145 278.303 68.8598 277.715 67.7472C277.133 66.6297 276.842 65.2898 276.842 63.7273C276.842 62.16 277.133 60.8201 277.715 59.7074C278.303 58.59 279.098 57.7353 280.102 57.1435C281.11 56.5516 282.251 56.2557 283.525 56.2557C284.799 56.2557 285.938 56.5516 286.941 57.1435C287.95 57.7353 288.745 58.59 289.328 59.7074C289.915 60.8201 290.208 62.16 290.208 63.7273ZM287.559 63.7273C287.559 62.6241 287.386 61.6937 287.041 60.9361C286.7 60.1738 286.226 59.5985 285.62 59.2102C285.014 58.8172 284.316 58.6207 283.525 58.6207C282.734 58.6207 282.036 58.8172 281.43 59.2102C280.824 59.5985 280.348 60.1738 280.002 60.9361C279.662 61.6937 279.491 62.6241 279.491 63.7273C279.491 64.8305 279.662 65.7633 280.002 66.5256C280.348 67.2831 280.824 67.8584 281.43 68.2514C282.036 68.6397 282.734 68.8338 283.525 68.8338C284.316 68.8338 285.014 68.6397 285.62 68.2514C286.226 67.8584 286.7 67.2831 287.041 66.5256C287.386 65.7633 287.559 64.8305 287.559 63.7273ZM297.318 71V69.0966L302.368 64.1463C302.851 63.6586 303.254 63.2254 303.575 62.8466C303.897 62.4678 304.139 62.1009 304.3 61.7457C304.461 61.3906 304.541 61.0118 304.541 60.6094C304.541 60.1501 304.437 59.7571 304.229 59.4304C304.021 59.099 303.734 58.8433 303.37 58.6634C303.005 58.4834 302.591 58.3935 302.127 58.3935C301.648 58.3935 301.229 58.4929 300.87 58.6918C300.51 58.8859 300.23 59.1629 300.031 59.5227C299.837 59.8826 299.74 60.3111 299.74 60.8082H297.233C297.233 59.8849 297.444 59.0824 297.865 58.4006C298.287 57.7187 298.867 57.1908 299.605 56.8168C300.349 56.4427 301.201 56.2557 302.162 56.2557C303.138 56.2557 303.995 56.438 304.733 56.8026C305.472 57.1671 306.045 57.6667 306.452 58.3011C306.864 58.9356 307.07 59.66 307.07 60.4744C307.07 61.0189 306.966 61.554 306.757 62.0795C306.549 62.6051 306.182 63.1875 305.656 63.8267C305.136 64.4659 304.404 65.2401 303.462 66.1491L300.955 68.6989V68.7983H307.29V71H297.318ZM310.173 71L316.359 58.7557V58.6562H309.179V56.4545H319.086V58.706L312.907 71H310.173ZM326.342 71.277C325.173 71.277 324.169 70.9811 323.331 70.3892C322.498 69.7926 321.856 68.9332 321.406 67.8111C320.961 66.6842 320.739 65.3277 320.739 63.7415C320.744 62.1553 320.968 60.8059 321.413 59.6932C321.863 58.5758 322.505 57.7235 323.338 57.1364C324.176 56.5492 325.178 56.2557 326.342 56.2557C327.507 56.2557 328.509 56.5492 329.347 57.1364C330.185 57.7235 330.826 58.5758 331.271 59.6932C331.721 60.8106 331.946 62.16 331.946 63.7415C331.946 65.3324 331.721 66.6913 331.271 67.8182C330.826 68.9403 330.185 69.7973 329.347 70.3892C328.513 70.9811 327.512 71.277 326.342 71.277ZM326.342 69.054C327.252 69.054 327.969 68.6065 328.494 67.7116C329.025 66.812 329.29 65.4886 329.29 63.7415C329.29 62.5862 329.169 61.6155 328.928 60.8295C328.686 60.0436 328.345 59.4517 327.905 59.054C327.465 58.6515 326.944 58.4503 326.342 58.4503C325.438 58.4503 324.723 58.9001 324.198 59.7997C323.672 60.6946 323.407 62.0085 323.402 63.7415C323.397 64.9015 323.513 65.8769 323.75 66.6676C323.992 67.4583 324.333 68.0549 324.773 68.4574C325.213 68.8551 325.736 69.054 326.342 69.054ZM339.582 71.277C338.413 71.277 337.409 70.9811 336.571 70.3892C335.738 69.7926 335.096 68.9332 334.646 67.8111C334.201 66.6842 333.979 65.3277 333.979 63.7415C333.983 62.1553 334.208 60.8059 334.653 59.6932C335.103 58.5758 335.745 57.7235 336.578 57.1364C337.416 56.5492 338.418 56.2557 339.582 56.2557C340.747 56.2557 341.749 56.5492 342.587 57.1364C343.425 57.7235 344.066 58.5758 344.511 59.6932C344.961 60.8106 345.186 62.16 345.186 63.7415C345.186 65.3324 344.961 66.6913 344.511 67.8182C344.066 68.9403 343.425 69.7973 342.587 70.3892C341.753 70.9811 340.752 71.277 339.582 71.277ZM339.582 69.054C340.491 69.054 341.209 68.6065 341.734 67.7116C342.265 66.812 342.53 65.4886 342.53 63.7415C342.53 62.5862 342.409 61.6155 342.168 60.8295C341.926 60.0436 341.585 59.4517 341.145 59.054C340.704 58.6515 340.184 58.4503 339.582 58.4503C338.678 58.4503 337.963 58.9001 337.437 59.7997C336.912 60.6946 336.647 62.0085 336.642 63.7415C336.637 64.9015 336.753 65.8769 336.99 66.6676C337.231 67.4583 337.572 68.0549 338.013 68.4574C338.453 68.8551 338.976 69.054 339.582 69.054ZM353.362 56.4545V71H350.727V59.0185H350.642L347.24 61.1918V58.777L350.855 56.4545H353.362Z" fill="#111827"/>
<rect width="1591" height="812" transform="translate(62 102)" fill="white"/>
<g filter="url(#filter0_d_624_39566)">
<rect x="257.5" y="114" width="599" height="161" rx="8" fill="white" shape-rendering="crispEdges"/>
<rect x="258" y="114.5" width="598" height="160" rx="7.5" stroke="#E5E7EB" shape-rendering="crispEdges"/>
<mask id="path-8-inside-2_624_39566" fill="white">
<path d="M257.5 114H856.5V158H257.5V114Z"/>
</mask>
<path d="M856.5 158V157H257.5V158V159H856.5V158Z" fill="#E5E7EB" mask="url(#path-8-inside-2_624_39566)"/>
<rect x="269.5" y="126" width="284.725" height="20" rx="4" fill="#F3F4F6"/>
<mask id="path-11-inside-3_624_39566" fill="white">
<path d="M257.5 158H540.5V251H257.5V158Z"/>
</mask>
<path d="M540.5 158H539.5V251H540.5H541.5V158H540.5Z" fill="#E5E7EB" mask="url(#path-11-inside-3_624_39566)"/>
<rect x="269.5" y="164" width="76.2637" height="14" rx="4" fill="#F3F4F6"/>
<rect x="269.5" y="186" width="76.2637" height="32" rx="4" fill="#F3F4F6"/>
<rect x="399" y="164" width="76.2637" height="14" rx="4" fill="#F3F4F6"/>
<rect x="399" y="186" width="76.2637" height="32" rx="4" fill="#F3F4F6"/>
<rect x="269.5" y="232" width="259" height="11" rx="5.5" fill="#F3F4F6"/>
<mask id="path-18-inside-4_624_39566" fill="white">
<path d="M540.5 158H698.5V275H540.5V158Z"/>
</mask>
<path d="M698.5 158H697.5V275H698.5H699.5V158H698.5Z" fill="#E5E7EB" mask="url(#path-18-inside-4_624_39566)"/>
<rect x="552.5" y="164" width="76.2637" height="14" rx="4" fill="#F3F4F6"/>
<rect x="552.5" y="186" width="76.2637" height="32" rx="4" fill="#F3F4F6"/>
<rect x="552.5" y="232" width="134" height="11" rx="5.5" fill="#F3F4F6"/>
<rect x="710.5" y="164" width="76.2637" height="14" rx="4" fill="#F3F4F6"/>
<rect x="710.5" y="186" width="76.2637" height="32" rx="4" fill="#F3F4F6"/>
<rect x="710.5" y="232" width="134" height="11" rx="5.5" fill="#F3F4F6"/>
</g>
<g filter="url(#filter1_d_624_39566)">
<rect x="868.5" y="114" width="589" height="161" rx="8" fill="white" shape-rendering="crispEdges"/>
<rect x="869" y="114.5" width="588" height="160" rx="7.5" stroke="#E5E7EB" shape-rendering="crispEdges"/>
<mask id="path-28-inside-5_624_39566" fill="white">
<path d="M868.5 114H1457.5V158H868.5V114Z"/>
</mask>
<path d="M1457.5 158V157H868.5V158V159H1457.5V158Z" fill="#E5E7EB" mask="url(#path-28-inside-5_624_39566)"/>
<rect x="880.5" y="126" width="284.725" height="20" rx="4" fill="#F3F4F6"/>
<rect x="880.5" y="206" width="76.2637" height="14" rx="4" fill="#F3F4F6"/>
<rect x="964.764" y="206" width="76.2637" height="14" rx="4" fill="#F3F4F6"/>
<rect x="1049.03" y="206" width="76.2637" height="14" rx="4" fill="#F3F4F6"/>
</g>
<rect width="1591" height="64" transform="translate(62 287)" fill="white"/>
<rect x="257" y="298.5" width="201" height="37" rx="6.5" fill="#F1F5F9"/>
<rect x="257" y="298.5" width="201" height="37" rx="6.5" stroke="#CBD5E1"/>
<path d="M276.301 314.364C276.241 313.86 276 313.469 275.575 313.19C275.151 312.912 274.631 312.773 274.014 312.773C273.563 312.773 273.169 312.846 272.831 312.991C272.496 313.137 272.234 313.338 272.045 313.593C271.86 313.848 271.767 314.138 271.767 314.463C271.767 314.735 271.832 314.969 271.961 315.164C272.094 315.356 272.263 315.517 272.468 315.646C272.674 315.772 272.889 315.877 273.114 315.96C273.34 316.039 273.547 316.104 273.736 316.153L274.77 316.432C275.035 316.501 275.33 316.598 275.655 316.72C275.983 316.843 276.296 317.01 276.594 317.222C276.896 317.431 277.145 317.7 277.34 318.028C277.536 318.356 277.634 318.759 277.634 319.236C277.634 319.786 277.489 320.283 277.201 320.727C276.916 321.171 276.498 321.524 275.948 321.786C275.401 322.048 274.737 322.179 273.955 322.179C273.225 322.179 272.594 322.061 272.06 321.826C271.53 321.591 271.112 321.263 270.808 320.842C270.506 320.421 270.335 319.932 270.295 319.375H271.568C271.601 319.759 271.731 320.078 271.956 320.33C272.185 320.578 272.473 320.764 272.821 320.886C273.172 321.006 273.55 321.065 273.955 321.065C274.425 321.065 274.848 320.989 275.222 320.837C275.597 320.681 275.893 320.465 276.112 320.19C276.331 319.912 276.44 319.587 276.44 319.216C276.44 318.878 276.346 318.603 276.157 318.391C275.968 318.179 275.719 318.006 275.411 317.874C275.103 317.741 274.77 317.625 274.412 317.526L273.159 317.168C272.364 316.939 271.734 316.612 271.27 316.188C270.806 315.764 270.574 315.209 270.574 314.523C270.574 313.953 270.728 313.455 271.036 313.031C271.348 312.604 271.765 312.272 272.289 312.037C272.816 311.798 273.404 311.679 274.054 311.679C274.71 311.679 275.294 311.797 275.804 312.032C276.314 312.264 276.719 312.582 277.017 312.987C277.319 313.391 277.478 313.85 277.494 314.364H276.301ZM282.703 322.159C281.968 322.159 281.333 321.997 280.799 321.672C280.269 321.344 279.86 320.886 279.571 320.3C279.286 319.71 279.144 319.024 279.144 318.241C279.144 317.459 279.286 316.77 279.571 316.173C279.86 315.573 280.261 315.106 280.774 314.771C281.291 314.433 281.895 314.264 282.584 314.264C282.982 314.264 283.374 314.33 283.762 314.463C284.15 314.596 284.503 314.811 284.821 315.109C285.139 315.404 285.393 315.795 285.582 316.283C285.771 316.77 285.865 317.37 285.865 318.082V318.58H279.979V317.565H284.672C284.672 317.134 284.586 316.75 284.414 316.412C284.244 316.074 284.003 315.807 283.688 315.612C283.376 315.416 283.008 315.318 282.584 315.318C282.117 315.318 281.712 315.434 281.371 315.666C281.033 315.895 280.773 316.193 280.59 316.561C280.408 316.929 280.317 317.323 280.317 317.744V318.42C280.317 318.997 280.416 319.486 280.615 319.887C280.817 320.285 281.097 320.588 281.455 320.797C281.813 321.002 282.229 321.105 282.703 321.105C283.012 321.105 283.29 321.062 283.539 320.976C283.79 320.886 284.008 320.754 284.19 320.578C284.372 320.399 284.513 320.177 284.612 319.912L285.746 320.23C285.627 320.615 285.426 320.953 285.144 321.244C284.863 321.533 284.515 321.758 284.1 321.92C283.686 322.08 283.22 322.159 282.703 322.159ZM289.897 322.179C289.413 322.179 288.974 322.088 288.58 321.906C288.185 321.72 287.872 321.453 287.64 321.105C287.408 320.754 287.292 320.33 287.292 319.832C287.292 319.395 287.378 319.04 287.551 318.768C287.723 318.493 287.953 318.278 288.242 318.122C288.53 317.966 288.848 317.85 289.196 317.774C289.548 317.695 289.901 317.632 290.255 317.585C290.719 317.526 291.095 317.481 291.384 317.451C291.675 317.418 291.887 317.363 292.02 317.287C292.156 317.211 292.224 317.078 292.224 316.889V316.849C292.224 316.359 292.09 315.978 291.821 315.706C291.556 315.434 291.153 315.298 290.613 315.298C290.053 315.298 289.614 315.421 289.296 315.666C288.977 315.911 288.754 316.173 288.624 316.452L287.511 316.054C287.71 315.59 287.975 315.229 288.306 314.97C288.641 314.708 289.006 314.526 289.4 314.423C289.798 314.317 290.189 314.264 290.573 314.264C290.819 314.264 291.1 314.294 291.419 314.354C291.74 314.41 292.05 314.528 292.348 314.707C292.65 314.886 292.9 315.156 293.099 315.517C293.298 315.878 293.397 316.362 293.397 316.969V322H292.224V320.966H292.164C292.085 321.132 291.952 321.309 291.767 321.498C291.581 321.687 291.334 321.848 291.026 321.98C290.718 322.113 290.341 322.179 289.897 322.179ZM290.076 321.125C290.54 321.125 290.931 321.034 291.249 320.852C291.571 320.669 291.813 320.434 291.975 320.146C292.141 319.857 292.224 319.554 292.224 319.236V318.162C292.174 318.222 292.065 318.276 291.896 318.326C291.73 318.372 291.538 318.414 291.319 318.45C291.104 318.483 290.893 318.513 290.688 318.54C290.485 318.563 290.321 318.583 290.195 318.599C289.891 318.639 289.606 318.704 289.34 318.793C289.079 318.879 288.866 319.01 288.704 319.186C288.545 319.358 288.465 319.594 288.465 319.892C288.465 320.3 288.616 320.608 288.918 320.817C289.223 321.022 289.609 321.125 290.076 321.125ZM295.539 322V314.364H296.672V315.517H296.752C296.891 315.139 297.143 314.833 297.507 314.597C297.872 314.362 298.283 314.244 298.74 314.244C298.827 314.244 298.934 314.246 299.064 314.249C299.193 314.253 299.291 314.258 299.357 314.264V315.457C299.317 315.447 299.226 315.433 299.083 315.413C298.944 315.389 298.797 315.378 298.641 315.378C298.27 315.378 297.938 315.456 297.647 315.612C297.358 315.764 297.13 315.976 296.961 316.248C296.795 316.516 296.712 316.823 296.712 317.168V322H295.539ZM303.618 322.159C302.902 322.159 302.285 321.99 301.768 321.652C301.251 321.314 300.853 320.848 300.575 320.255C300.297 319.662 300.157 318.984 300.157 318.222C300.157 317.446 300.3 316.762 300.585 316.168C300.873 315.572 301.274 315.106 301.788 314.771C302.305 314.433 302.908 314.264 303.598 314.264C304.135 314.264 304.618 314.364 305.049 314.562C305.48 314.761 305.833 315.04 306.108 315.398C306.383 315.756 306.554 316.173 306.62 316.651H305.447C305.358 316.303 305.159 315.994 304.85 315.726C304.546 315.454 304.135 315.318 303.618 315.318C303.16 315.318 302.759 315.437 302.414 315.676C302.073 315.911 301.806 316.245 301.614 316.675C301.425 317.103 301.331 317.605 301.331 318.182C301.331 318.772 301.423 319.286 301.609 319.723C301.798 320.161 302.063 320.5 302.404 320.742C302.749 320.984 303.154 321.105 303.618 321.105C303.922 321.105 304.199 321.052 304.448 320.946C304.696 320.84 304.907 320.688 305.079 320.489C305.252 320.29 305.374 320.051 305.447 319.773H306.62C306.554 320.223 306.39 320.629 306.128 320.991C305.87 321.349 305.527 321.634 305.099 321.846C304.675 322.055 304.181 322.159 303.618 322.159ZM309.509 317.406V322H308.336V311.818H309.509V315.557H309.608C309.787 315.162 310.056 314.849 310.414 314.617C310.775 314.382 311.256 314.264 311.855 314.264C312.376 314.264 312.832 314.369 313.223 314.577C313.614 314.783 313.917 315.099 314.132 315.527C314.351 315.951 314.461 316.491 314.461 317.148V322H313.287V317.227C313.287 316.621 313.13 316.152 312.815 315.82C312.503 315.486 312.071 315.318 311.517 315.318C311.133 315.318 310.788 315.399 310.483 315.562C310.182 315.724 309.943 315.961 309.767 316.273C309.595 316.584 309.509 316.962 309.509 317.406Z" fill="#94A3B8" fill-opacity="0.6"/>
<g opacity="0.5">
<rect x="1160" y="299.5" width="297" height="39" rx="5.5" fill="white"/>
<rect x="1160" y="299.5" width="297" height="39" rx="5.5" stroke="#CBD5E1"/>
<rect width="68" height="32" transform="translate(1164.5 303)" fill="white"/>
<path d="M1177.62 324V313.818H1183.93V315.141H1179.15V318.243H1183.48V319.56H1179.15V324H1177.62ZM1187.9 324.169C1187.41 324.169 1186.98 324.08 1186.58 323.901C1186.19 323.718 1185.88 323.455 1185.66 323.11C1185.43 322.765 1185.32 322.343 1185.32 321.842C1185.32 321.411 1185.4 321.057 1185.57 320.778C1185.73 320.5 1185.96 320.28 1186.24 320.117C1186.52 319.955 1186.83 319.832 1187.18 319.749C1187.53 319.666 1187.88 319.603 1188.25 319.56C1188.7 319.507 1189.07 319.464 1189.36 319.431C1189.64 319.395 1189.85 319.337 1189.98 319.257C1190.11 319.178 1190.17 319.048 1190.17 318.869V318.835C1190.17 318.4 1190.05 318.064 1189.81 317.825C1189.56 317.587 1189.2 317.467 1188.72 317.467C1188.22 317.467 1187.83 317.578 1187.54 317.8C1187.25 318.019 1187.06 318.263 1186.95 318.531L1185.55 318.213C1185.72 317.749 1185.96 317.375 1186.28 317.089C1186.6 316.801 1186.97 316.592 1187.39 316.463C1187.8 316.33 1188.24 316.264 1188.7 316.264C1189.01 316.264 1189.33 316.301 1189.67 316.374C1190.02 316.443 1190.34 316.572 1190.64 316.761C1190.94 316.95 1191.19 317.22 1191.38 317.572C1191.57 317.92 1191.67 318.372 1191.67 318.929V324H1190.21V322.956H1190.15C1190.06 323.148 1189.91 323.337 1189.72 323.523C1189.53 323.708 1189.28 323.862 1188.98 323.985C1188.68 324.108 1188.32 324.169 1187.9 324.169ZM1188.22 322.976C1188.63 322.976 1188.98 322.895 1189.27 322.732C1189.57 322.57 1189.79 322.358 1189.95 322.096C1190.1 321.831 1190.18 321.547 1190.18 321.246V320.261C1190.13 320.314 1190.02 320.364 1189.87 320.411C1189.72 320.454 1189.55 320.492 1189.36 320.525C1189.17 320.555 1188.98 320.583 1188.8 320.609C1188.61 320.633 1188.46 320.652 1188.34 320.669C1188.05 320.705 1187.79 320.767 1187.55 320.853C1187.31 320.939 1187.13 321.063 1186.98 321.226C1186.84 321.385 1186.77 321.597 1186.77 321.862C1186.77 322.23 1186.91 322.509 1187.18 322.697C1187.45 322.883 1187.8 322.976 1188.22 322.976ZM1193.65 324V316.364H1195.13V324H1193.65ZM1194.4 315.185C1194.14 315.185 1193.92 315.099 1193.73 314.927C1193.55 314.751 1193.46 314.542 1193.46 314.3C1193.46 314.055 1193.55 313.846 1193.73 313.674C1193.92 313.498 1194.14 313.411 1194.4 313.411C1194.66 313.411 1194.88 313.498 1195.06 313.674C1195.24 313.846 1195.34 314.055 1195.34 314.3C1195.34 314.542 1195.24 314.751 1195.06 314.927C1194.88 315.099 1194.66 315.185 1194.4 315.185ZM1198.62 313.818V324H1197.13V313.818H1198.62ZM1200.62 324V316.364H1202.1V324H1200.62ZM1201.37 315.185C1201.11 315.185 1200.89 315.099 1200.7 314.927C1200.52 314.751 1200.43 314.542 1200.43 314.3C1200.43 314.055 1200.52 313.846 1200.7 313.674C1200.89 313.498 1201.11 313.411 1201.37 313.411C1201.63 313.411 1201.85 313.498 1202.03 313.674C1202.22 313.846 1202.31 314.055 1202.31 314.3C1202.31 314.542 1202.22 314.751 1202.03 314.927C1201.85 315.099 1201.63 315.185 1201.37 315.185ZM1205.59 319.466V324H1204.1V316.364H1205.53V317.607H1205.63C1205.8 317.202 1206.08 316.877 1206.45 316.632C1206.83 316.387 1207.3 316.264 1207.88 316.264C1208.4 316.264 1208.85 316.374 1209.25 316.592C1209.64 316.808 1209.94 317.129 1210.16 317.557C1210.37 317.984 1210.48 318.513 1210.48 319.143V324H1208.99V319.322C1208.99 318.768 1208.85 318.336 1208.56 318.024C1208.27 317.709 1207.87 317.552 1207.37 317.552C1207.03 317.552 1206.72 317.626 1206.45 317.776C1206.19 317.925 1205.98 318.143 1205.82 318.432C1205.67 318.717 1205.59 319.062 1205.59 319.466ZM1215.67 327.023C1215.07 327.023 1214.55 326.943 1214.11 326.784C1213.67 326.625 1213.32 326.415 1213.04 326.153C1212.77 325.891 1212.56 325.604 1212.43 325.293L1213.7 324.766C1213.79 324.911 1213.91 325.066 1214.06 325.228C1214.22 325.394 1214.42 325.535 1214.68 325.651C1214.94 325.767 1215.28 325.825 1215.69 325.825C1216.25 325.825 1216.72 325.687 1217.09 325.412C1217.45 325.14 1217.64 324.706 1217.64 324.109V322.608H1217.54C1217.45 322.77 1217.32 322.951 1217.16 323.15C1216.99 323.349 1216.76 323.521 1216.47 323.667C1216.18 323.813 1215.8 323.886 1215.33 323.886C1214.73 323.886 1214.18 323.745 1213.7 323.463C1213.22 323.178 1212.84 322.759 1212.56 322.205C1212.28 321.648 1212.14 320.964 1212.14 320.152C1212.14 319.34 1212.28 318.644 1212.55 318.064C1212.83 317.484 1213.21 317.04 1213.69 316.732C1214.18 316.42 1214.73 316.264 1215.34 316.264C1215.81 316.264 1216.2 316.344 1216.49 316.503C1216.78 316.659 1217.01 316.841 1217.17 317.05C1217.34 317.259 1217.46 317.442 1217.55 317.602H1217.66V316.364H1219.12V324.169C1219.12 324.825 1218.97 325.364 1218.66 325.785C1218.36 326.206 1217.94 326.517 1217.42 326.719C1216.91 326.922 1216.32 327.023 1215.67 327.023ZM1215.66 322.653C1216.09 322.653 1216.45 322.553 1216.74 322.354C1217.04 322.152 1217.27 321.864 1217.42 321.489C1217.57 321.112 1217.65 320.659 1217.65 320.132C1217.65 319.618 1217.58 319.166 1217.42 318.775C1217.27 318.384 1217.05 318.079 1216.75 317.86C1216.46 317.638 1216.09 317.527 1215.66 317.527C1215.21 317.527 1214.84 317.643 1214.54 317.875C1214.24 318.104 1214.02 318.415 1213.86 318.81C1213.71 319.204 1213.64 319.645 1213.64 320.132C1213.64 320.633 1213.72 321.072 1213.87 321.45C1214.02 321.827 1214.25 322.122 1214.55 322.335C1214.85 322.547 1215.22 322.653 1215.66 322.653Z" fill="black"/>
<rect width="79" height="32" transform="translate(1232.5 303)" fill="white"/>
<path d="M1245.62 324V313.818H1249.25C1250.04 313.818 1250.7 313.962 1251.22 314.251C1251.74 314.539 1252.13 314.933 1252.38 315.434C1252.64 315.931 1252.77 316.491 1252.77 317.114C1252.77 317.741 1252.64 318.304 1252.38 318.805C1252.12 319.302 1251.73 319.696 1251.21 319.988C1250.69 320.276 1250.03 320.42 1249.24 320.42H1246.75V319.118H1249.1C1249.6 319.118 1250.01 319.032 1250.32 318.859C1250.63 318.684 1250.86 318.445 1251.01 318.143C1251.15 317.842 1251.23 317.499 1251.23 317.114C1251.23 316.73 1251.15 316.388 1251.01 316.09C1250.86 315.792 1250.63 315.558 1250.32 315.389C1250.01 315.22 1249.59 315.136 1249.08 315.136H1247.15V324H1245.62ZM1257.65 324.154C1256.9 324.154 1256.25 323.993 1255.71 323.672C1255.17 323.347 1254.75 322.891 1254.45 322.305C1254.16 321.715 1254.02 321.024 1254.02 320.232C1254.02 319.449 1254.16 318.76 1254.45 318.163C1254.75 317.567 1255.16 317.101 1255.69 316.766C1256.22 316.432 1256.84 316.264 1257.55 316.264C1257.98 316.264 1258.39 316.335 1258.8 316.478C1259.2 316.621 1259.57 316.844 1259.89 317.149C1260.21 317.454 1260.46 317.85 1260.65 318.337C1260.83 318.821 1260.93 319.41 1260.93 320.102V320.629H1254.86V319.516H1259.47C1259.47 319.125 1259.39 318.778 1259.23 318.477C1259.07 318.172 1258.85 317.931 1258.56 317.756C1258.27 317.58 1257.94 317.492 1257.56 317.492C1257.14 317.492 1256.77 317.595 1256.46 317.8C1256.15 318.003 1255.91 318.268 1255.75 318.596C1255.58 318.921 1255.5 319.274 1255.5 319.655V320.525C1255.5 321.035 1255.59 321.469 1255.77 321.827C1255.95 322.185 1256.2 322.459 1256.53 322.648C1256.85 322.833 1257.23 322.926 1257.66 322.926C1257.95 322.926 1258.2 322.886 1258.44 322.807C1258.67 322.724 1258.87 322.601 1259.04 322.439C1259.21 322.277 1259.34 322.076 1259.42 321.837L1260.83 322.091C1260.72 322.505 1260.52 322.868 1260.23 323.18C1259.94 323.488 1259.57 323.728 1259.14 323.901C1258.7 324.07 1258.21 324.154 1257.65 324.154ZM1264.06 319.466V324H1262.58V316.364H1264V317.607H1264.1C1264.27 317.202 1264.55 316.877 1264.92 316.632C1265.3 316.387 1265.78 316.264 1266.35 316.264C1266.87 316.264 1267.32 316.374 1267.72 316.592C1268.11 316.808 1268.41 317.129 1268.63 317.557C1268.84 317.984 1268.95 318.513 1268.95 319.143V324H1267.46V319.322C1267.46 318.768 1267.32 318.336 1267.03 318.024C1266.74 317.709 1266.35 317.552 1265.84 317.552C1265.5 317.552 1265.19 317.626 1264.92 317.776C1264.66 317.925 1264.45 318.143 1264.29 318.432C1264.14 318.717 1264.06 319.062 1264.06 319.466ZM1273.8 324.149C1273.18 324.149 1272.63 323.992 1272.15 323.677C1271.67 323.359 1271.29 322.906 1271.02 322.32C1270.75 321.73 1270.61 321.022 1270.61 320.197C1270.61 319.371 1270.75 318.665 1271.02 318.079C1271.3 317.492 1271.68 317.043 1272.17 316.732C1272.65 316.42 1273.2 316.264 1273.81 316.264C1274.29 316.264 1274.67 316.344 1274.95 316.503C1275.25 316.659 1275.47 316.841 1275.63 317.05C1275.79 317.259 1275.92 317.442 1276.01 317.602H1276.1V313.818H1277.58V324H1276.13V322.812H1276.01C1275.92 322.974 1275.79 323.16 1275.62 323.369C1275.46 323.577 1275.23 323.76 1274.93 323.915C1274.64 324.071 1274.27 324.149 1273.8 324.149ZM1274.13 322.881C1274.56 322.881 1274.92 322.769 1275.21 322.543C1275.51 322.315 1275.74 321.998 1275.89 321.594C1276.05 321.189 1276.12 320.719 1276.12 320.182C1276.12 319.652 1276.05 319.187 1275.89 318.79C1275.74 318.392 1275.52 318.082 1275.22 317.86C1274.93 317.638 1274.56 317.527 1274.13 317.527C1273.68 317.527 1273.31 317.643 1273.01 317.875C1272.71 318.107 1272.49 318.424 1272.33 318.825C1272.19 319.226 1272.11 319.678 1272.11 320.182C1272.11 320.692 1272.19 321.151 1272.34 321.559C1272.49 321.967 1272.72 322.29 1273.02 322.528C1273.32 322.764 1273.69 322.881 1274.13 322.881ZM1279.71 324V316.364H1281.19V324H1279.71ZM1280.46 315.185C1280.2 315.185 1279.98 315.099 1279.79 314.927C1279.61 314.751 1279.52 314.542 1279.52 314.3C1279.52 314.055 1279.61 313.846 1279.79 313.674C1279.98 313.498 1280.2 313.411 1280.46 313.411C1280.72 313.411 1280.94 313.498 1281.12 313.674C1281.3 313.846 1281.4 314.055 1281.4 314.3C1281.4 314.542 1281.3 314.751 1281.12 314.927C1280.94 315.099 1280.72 315.185 1280.46 315.185ZM1284.68 319.466V324H1283.19V316.364H1284.62V317.607H1284.71C1284.89 317.202 1285.16 316.877 1285.54 316.632C1285.92 316.387 1286.39 316.264 1286.97 316.264C1287.49 316.264 1287.94 316.374 1288.33 316.592C1288.72 316.808 1289.03 317.129 1289.24 317.557C1289.46 317.984 1289.57 318.513 1289.57 319.143V324H1288.08V319.322C1288.08 318.768 1287.94 318.336 1287.65 318.024C1287.36 317.709 1286.96 317.552 1286.46 317.552C1286.11 317.552 1285.81 317.626 1285.54 317.776C1285.27 317.925 1285.06 318.143 1284.91 318.432C1284.76 318.717 1284.68 319.062 1284.68 319.466ZM1294.76 327.023C1294.16 327.023 1293.63 326.943 1293.2 326.784C1292.76 326.625 1292.41 326.415 1292.13 326.153C1291.86 325.891 1291.65 325.604 1291.52 325.293L1292.79 324.766C1292.88 324.911 1293 325.066 1293.15 325.228C1293.3 325.394 1293.51 325.535 1293.77 325.651C1294.03 325.767 1294.37 325.825 1294.78 325.825C1295.34 325.825 1295.81 325.687 1296.17 325.412C1296.54 325.14 1296.73 324.706 1296.73 324.109V322.608H1296.63C1296.54 322.77 1296.41 322.951 1296.24 323.15C1296.08 323.349 1295.85 323.521 1295.56 323.667C1295.27 323.813 1294.89 323.886 1294.42 323.886C1293.82 323.886 1293.27 323.745 1292.79 323.463C1292.31 323.178 1291.93 322.759 1291.64 322.205C1291.37 321.648 1291.23 320.964 1291.23 320.152C1291.23 319.34 1291.36 318.644 1291.64 318.064C1291.92 317.484 1292.3 317.04 1292.78 316.732C1293.27 316.42 1293.82 316.264 1294.43 316.264C1294.9 316.264 1295.29 316.344 1295.58 316.503C1295.87 316.659 1296.1 316.841 1296.26 317.05C1296.42 317.259 1296.55 317.442 1296.64 317.602H1296.75V316.364H1298.21V324.169C1298.21 324.825 1298.05 325.364 1297.75 325.785C1297.44 326.206 1297.03 326.517 1296.51 326.719C1295.99 326.922 1295.41 327.023 1294.76 327.023ZM1294.75 322.653C1295.17 322.653 1295.54 322.553 1295.83 322.354C1296.13 322.152 1296.35 321.864 1296.51 321.489C1296.66 321.112 1296.74 320.659 1296.74 320.132C1296.74 319.618 1296.66 319.166 1296.51 318.775C1296.36 318.384 1296.14 318.079 1295.84 317.86C1295.55 317.638 1295.18 317.527 1294.75 317.527C1294.3 317.527 1293.93 317.643 1293.63 317.875C1293.33 318.104 1293.1 318.415 1292.95 318.81C1292.8 319.204 1292.73 319.645 1292.73 320.132C1292.73 320.633 1292.8 321.072 1292.96 321.45C1293.11 321.827 1293.33 322.122 1293.63 322.335C1293.93 322.547 1294.31 322.653 1294.75 322.653Z" fill="black"/>
<rect x="1311.5" y="303" width="100" height="32" rx="4" fill="#F1F5F9"/>
<path d="M1326.15 313.818V324H1324.62V313.818H1326.15ZM1329.76 319.466V324H1328.27V316.364H1329.7V317.607H1329.79C1329.97 317.202 1330.24 316.877 1330.62 316.632C1331 316.387 1331.47 316.264 1332.05 316.264C1332.57 316.264 1333.02 316.374 1333.41 316.592C1333.8 316.808 1334.11 317.129 1334.32 317.557C1334.54 317.984 1334.65 318.513 1334.65 319.143V324H1333.16V319.322C1333.16 318.768 1333.02 318.336 1332.73 318.024C1332.44 317.709 1332.04 317.552 1331.54 317.552C1331.19 317.552 1330.89 317.626 1330.62 317.776C1330.35 317.925 1330.14 318.143 1329.99 318.432C1329.84 318.717 1329.76 319.062 1329.76 319.466ZM1340.46 324V313.818H1344.09C1344.89 313.818 1345.54 313.962 1346.06 314.251C1346.58 314.539 1346.97 314.933 1347.23 315.434C1347.49 315.931 1347.62 316.491 1347.62 317.114C1347.62 317.741 1347.49 318.304 1347.23 318.805C1346.97 319.302 1346.58 319.696 1346.05 319.988C1345.53 320.276 1344.88 320.42 1344.09 320.42H1341.59V319.118H1343.95C1344.45 319.118 1344.86 319.032 1345.17 318.859C1345.48 318.684 1345.71 318.445 1345.85 318.143C1346 317.842 1346.07 317.499 1346.07 317.114C1346.07 316.73 1346 316.388 1345.85 316.09C1345.71 315.792 1345.48 315.558 1345.16 315.389C1344.85 315.22 1344.44 315.136 1343.93 315.136H1342V324H1340.46ZM1349.3 324V316.364H1350.74V317.577H1350.82C1350.96 317.166 1351.2 316.843 1351.55 316.607C1351.91 316.369 1352.31 316.249 1352.76 316.249C1352.85 316.249 1352.96 316.253 1353.08 316.259C1353.21 316.266 1353.31 316.274 1353.39 316.284V317.706C1353.33 317.689 1353.22 317.671 1353.07 317.651C1352.92 317.628 1352.76 317.616 1352.61 317.616C1352.26 317.616 1351.95 317.691 1351.67 317.84C1351.4 317.986 1351.18 318.19 1351.03 318.452C1350.87 318.71 1350.79 319.005 1350.79 319.337V324H1349.3ZM1357.62 324.154C1356.9 324.154 1356.28 323.99 1355.74 323.662C1355.21 323.334 1354.79 322.875 1354.5 322.285C1354.2 321.695 1354.06 321.005 1354.06 320.217C1354.06 319.424 1354.2 318.732 1354.5 318.138C1354.79 317.545 1355.21 317.085 1355.74 316.756C1356.28 316.428 1356.9 316.264 1357.62 316.264C1358.33 316.264 1358.96 316.428 1359.49 316.756C1360.02 317.085 1360.44 317.545 1360.73 318.138C1361.03 318.732 1361.18 319.424 1361.18 320.217C1361.18 321.005 1361.03 321.695 1360.73 322.285C1360.44 322.875 1360.02 323.334 1359.49 323.662C1358.96 323.99 1358.33 324.154 1357.62 324.154ZM1357.62 322.906C1358.09 322.906 1358.47 322.784 1358.77 322.538C1359.08 322.293 1359.3 321.967 1359.45 321.559C1359.6 321.151 1359.67 320.702 1359.67 320.212C1359.67 319.724 1359.6 319.277 1359.45 318.869C1359.3 318.458 1359.08 318.129 1358.77 317.88C1358.47 317.631 1358.09 317.507 1357.62 317.507C1357.15 317.507 1356.77 317.631 1356.46 317.88C1356.15 318.129 1355.93 318.458 1355.78 318.869C1355.63 319.277 1355.56 319.724 1355.56 320.212C1355.56 320.702 1355.63 321.151 1355.78 321.559C1355.93 321.967 1356.15 322.293 1356.46 322.538C1356.77 322.784 1357.15 322.906 1357.62 322.906ZM1366.04 327.023C1365.43 327.023 1364.91 326.943 1364.47 326.784C1364.04 326.625 1363.68 326.415 1363.41 326.153C1363.13 325.891 1362.93 325.604 1362.79 325.293L1364.07 324.766C1364.16 324.911 1364.28 325.066 1364.43 325.228C1364.58 325.394 1364.78 325.535 1365.04 325.651C1365.3 325.767 1365.64 325.825 1366.05 325.825C1366.62 325.825 1367.08 325.687 1367.45 325.412C1367.82 325.14 1368 324.706 1368 324.109V322.608H1367.91C1367.82 322.77 1367.69 322.951 1367.52 323.15C1367.35 323.349 1367.12 323.521 1366.83 323.667C1366.54 323.813 1366.16 323.886 1365.69 323.886C1365.09 323.886 1364.55 323.745 1364.06 323.463C1363.58 323.178 1363.2 322.759 1362.92 322.205C1362.64 321.648 1362.5 320.964 1362.5 320.152C1362.5 319.34 1362.64 318.644 1362.91 318.064C1363.19 317.484 1363.57 317.04 1364.06 316.732C1364.54 316.42 1365.09 316.264 1365.7 316.264C1366.18 316.264 1366.56 316.344 1366.85 316.503C1367.14 316.659 1367.37 316.841 1367.53 317.05C1367.7 317.259 1367.83 317.442 1367.92 317.602H1368.03V316.364H1369.48V324.169C1369.48 324.825 1369.33 325.364 1369.02 325.785C1368.72 326.206 1368.31 326.517 1367.79 326.719C1367.27 326.922 1366.69 327.023 1366.04 327.023ZM1366.02 322.653C1366.45 322.653 1366.81 322.553 1367.11 322.354C1367.4 322.152 1367.63 321.864 1367.78 321.489C1367.94 321.112 1368.02 320.659 1368.02 320.132C1368.02 319.618 1367.94 319.166 1367.79 318.775C1367.63 318.384 1367.41 318.079 1367.12 317.86C1366.82 317.638 1366.46 317.527 1366.02 317.527C1365.57 317.527 1365.2 317.643 1364.9 317.875C1364.61 318.104 1364.38 318.415 1364.23 318.81C1364.08 319.204 1364 319.645 1364 320.132C1364 320.633 1364.08 321.072 1364.23 321.45C1364.38 321.827 1364.61 322.122 1364.91 322.335C1365.21 322.547 1365.58 322.653 1366.02 322.653ZM1371.48 324V316.364H1372.91V317.577H1372.99C1373.13 317.166 1373.38 316.843 1373.73 316.607C1374.08 316.369 1374.48 316.249 1374.93 316.249C1375.02 316.249 1375.13 316.253 1375.26 316.259C1375.39 316.266 1375.49 316.274 1375.56 316.284V317.706C1375.5 317.689 1375.4 317.671 1375.24 317.651C1375.09 317.628 1374.94 317.616 1374.79 317.616C1374.44 317.616 1374.12 317.691 1373.85 317.84C1373.58 317.986 1373.36 318.19 1373.2 318.452C1373.04 318.71 1372.96 319.005 1372.96 319.337V324H1371.48ZM1379.87 324.154C1379.11 324.154 1378.47 323.993 1377.92 323.672C1377.38 323.347 1376.96 322.891 1376.67 322.305C1376.38 321.715 1376.23 321.024 1376.23 320.232C1376.23 319.449 1376.38 318.76 1376.67 318.163C1376.96 317.567 1377.38 317.101 1377.9 316.766C1378.43 316.432 1379.05 316.264 1379.76 316.264C1380.19 316.264 1380.61 316.335 1381.02 316.478C1381.42 316.621 1381.78 316.844 1382.1 317.149C1382.43 317.454 1382.68 317.85 1382.86 318.337C1383.05 318.821 1383.14 319.41 1383.14 320.102V320.629H1377.07V319.516H1381.69C1381.69 319.125 1381.61 318.778 1381.45 318.477C1381.29 318.172 1381.06 317.931 1380.78 317.756C1380.49 317.58 1380.16 317.492 1379.77 317.492C1379.35 317.492 1378.99 317.595 1378.68 317.8C1378.37 318.003 1378.13 318.268 1377.96 318.596C1377.8 318.921 1377.71 319.274 1377.71 319.655V320.525C1377.71 321.035 1377.8 321.469 1377.98 321.827C1378.16 322.185 1378.42 322.459 1378.74 322.648C1379.07 322.833 1379.45 322.926 1379.88 322.926C1380.16 322.926 1380.42 322.886 1380.65 322.807C1380.88 322.724 1381.08 322.601 1381.25 322.439C1381.42 322.277 1381.55 322.076 1381.64 321.837L1383.05 322.091C1382.94 322.505 1382.73 322.868 1382.44 323.18C1382.15 323.488 1381.79 323.728 1381.35 323.901C1380.92 324.07 1380.42 324.154 1379.87 324.154ZM1390.51 318.228L1389.17 318.467C1389.11 318.294 1389.02 318.13 1388.9 317.974C1388.78 317.819 1388.62 317.691 1388.41 317.592C1388.21 317.492 1387.95 317.442 1387.64 317.442C1387.22 317.442 1386.87 317.537 1386.59 317.726C1386.31 317.911 1386.16 318.152 1386.16 318.447C1386.16 318.702 1386.26 318.907 1386.45 319.063C1386.64 319.219 1386.94 319.347 1387.36 319.446L1388.58 319.724C1389.28 319.887 1389.8 320.137 1390.15 320.475C1390.49 320.813 1390.66 321.252 1390.66 321.793C1390.66 322.25 1390.53 322.658 1390.27 323.016C1390 323.37 1389.64 323.649 1389.17 323.851C1388.7 324.053 1388.16 324.154 1387.54 324.154C1386.69 324.154 1385.99 323.972 1385.45 323.607C1384.91 323.239 1384.58 322.717 1384.45 322.041L1385.89 321.822C1385.98 322.197 1386.16 322.48 1386.44 322.673C1386.72 322.862 1387.08 322.956 1387.53 322.956C1388.02 322.956 1388.41 322.855 1388.7 322.653C1388.99 322.447 1389.14 322.197 1389.14 321.902C1389.14 321.663 1389.05 321.463 1388.87 321.3C1388.69 321.138 1388.42 321.015 1388.06 320.933L1386.77 320.649C1386.05 320.487 1385.53 320.228 1385.19 319.874C1384.85 319.519 1384.68 319.07 1384.68 318.526C1384.68 318.076 1384.8 317.681 1385.06 317.343C1385.31 317.005 1385.66 316.741 1386.1 316.553C1386.54 316.36 1387.05 316.264 1387.63 316.264C1388.45 316.264 1389.1 316.443 1389.57 316.801C1390.05 317.156 1390.36 317.631 1390.51 318.228ZM1398.02 318.228L1396.67 318.467C1396.62 318.294 1396.53 318.13 1396.4 317.974C1396.29 317.819 1396.12 317.691 1395.92 317.592C1395.71 317.492 1395.46 317.442 1395.15 317.442C1394.73 317.442 1394.37 317.537 1394.09 317.726C1393.81 317.911 1393.67 318.152 1393.67 318.447C1393.67 318.702 1393.76 318.907 1393.95 319.063C1394.14 319.219 1394.45 319.347 1394.87 319.446L1396.08 319.724C1396.78 319.887 1397.31 320.137 1397.65 320.475C1398 320.813 1398.17 321.252 1398.17 321.793C1398.17 322.25 1398.04 322.658 1397.77 323.016C1397.51 323.37 1397.14 323.649 1396.67 323.851C1396.21 324.053 1395.66 324.154 1395.05 324.154C1394.19 324.154 1393.49 323.972 1392.95 323.607C1392.41 323.239 1392.08 322.717 1391.96 322.041L1393.4 321.822C1393.49 322.197 1393.67 322.48 1393.95 322.673C1394.23 322.862 1394.59 322.956 1395.04 322.956C1395.52 322.956 1395.91 322.855 1396.21 322.653C1396.5 322.447 1396.64 322.197 1396.64 321.902C1396.64 321.663 1396.55 321.463 1396.37 321.3C1396.2 321.138 1395.93 321.015 1395.56 320.933L1394.27 320.649C1393.56 320.487 1393.03 320.228 1392.69 319.874C1392.35 319.519 1392.18 319.07 1392.18 318.526C1392.18 318.076 1392.31 317.681 1392.56 317.343C1392.81 317.005 1393.16 316.741 1393.61 316.553C1394.05 316.36 1394.56 316.264 1395.13 316.264C1395.96 316.264 1396.61 316.443 1397.08 316.801C1397.55 317.156 1397.87 317.631 1398.02 318.228Z" fill="black"/>
<rect width="41" height="32" transform="translate(1411.5 303)" fill="white"/>
<path d="M1425.48 324H1423.85L1427.51 313.818H1429.29L1432.95 324H1431.32L1428.44 315.668H1428.36L1425.48 324ZM1425.75 320.013H1431.04V321.305H1425.75V320.013ZM1435.79 313.818V324H1434.3V313.818H1435.79ZM1439.27 313.818V324H1437.79V313.818H1439.27Z" fill="black"/>
</g>
<g filter="url(#filter2_d_624_39566)">
<rect x="257.5" y="351" width="1200" height="564" rx="4" fill="white" shape-rendering="crispEdges"/>
<rect x="258" y="351.5" width="1199" height="563" rx="3.5" stroke="#E5E7EB" shape-rendering="crispEdges"/>
<mask id="path-44-inside-6_624_39566" fill="white">
<path d="M257.5 351H917.5V395H257.5V351Z"/>
</mask>
<path d="M257.5 351H917.5V395H257.5V351Z" fill="#F9FAFB"/>
<path d="M257.5 351V350H256.5V351H257.5ZM917.5 351H918.5V350H917.5V351ZM257.5 351V352H917.5V351V350H257.5V351ZM917.5 351H916.5V395H917.5H918.5V351H917.5ZM257.5 395H258.5V351H257.5H256.5V395H257.5Z" fill="#E5E7EB" mask="url(#path-44-inside-6_624_39566)"/>
<mask id="path-46-inside-7_624_39566" fill="white">
<path d="M917.5 351H1097.5V395H917.5V351Z"/>
</mask>
<path d="M917.5 351H1097.5V395H917.5V351Z" fill="#F9FAFB"/>
<path d="M917.5 351V350H916.5V351H917.5ZM1097.5 351H1098.5V350H1097.5V351ZM917.5 351V352H1097.5V351V350H917.5V351ZM1097.5 351H1096.5V395H1097.5H1098.5V351H1097.5ZM917.5 395H918.5V351H917.5H916.5V395H917.5Z" fill="#E5E7EB" mask="url(#path-46-inside-7_624_39566)"/>
<mask id="path-48-inside-8_624_39566" fill="white">
<path d="M1097.5 351H1277.5V395H1097.5V351Z"/>
</mask>
<path d="M1097.5 351H1277.5V395H1097.5V351Z" fill="#F9FAFB"/>
<path d="M1097.5 351V350H1096.5V351H1097.5ZM1277.5 351H1278.5V350H1277.5V351ZM1097.5 351V352H1277.5V351V350H1097.5V351ZM1277.5 351H1276.5V395H1277.5H1278.5V351H1277.5ZM1097.5 395H1098.5V351H1097.5H1096.5V395H1097.5Z" fill="#E5E7EB" mask="url(#path-48-inside-8_624_39566)"/>
<mask id="path-50-inside-9_624_39566" fill="white">
<path d="M1277.5 351H1457.5V395H1277.5V351Z"/>
</mask>
<path d="M1277.5 351H1457.5V395H1277.5V351Z" fill="#F9FAFB"/>
<path d="M1277.5 351V350H1276.5V351H1277.5ZM1457.5 351H1458.5V350H1457.5V351ZM1277.5 351V352H1457.5V351V350H1277.5V351ZM1457.5 351H1456.5V395H1457.5H1458.5V351H1457.5ZM1277.5 395H1278.5V351H1277.5H1276.5V395H1277.5Z" fill="#E5E7EB" mask="url(#path-50-inside-9_624_39566)"/>
<path d="M1307.1 370.672C1307.06 370.3 1306.9 370.01 1306.6 369.803C1306.31 369.595 1305.93 369.491 1305.46 369.491C1305.13 369.491 1304.85 369.541 1304.61 369.641C1304.38 369.74 1304.19 369.875 1304.07 370.045C1303.94 370.216 1303.88 370.411 1303.88 370.629C1303.88 370.811 1303.92 370.969 1304 371.102C1304.09 371.236 1304.2 371.349 1304.35 371.443C1304.49 371.534 1304.65 371.611 1304.83 371.673C1305 371.736 1305.18 371.788 1305.36 371.831L1306.18 372.036C1306.51 372.112 1306.83 372.216 1307.13 372.347C1307.44 372.477 1307.71 372.642 1307.95 372.841C1308.2 373.04 1308.39 373.28 1308.53 373.561C1308.67 373.842 1308.74 374.172 1308.74 374.55C1308.74 375.061 1308.61 375.511 1308.35 375.901C1308.09 376.287 1307.71 376.589 1307.22 376.808C1306.73 377.024 1306.13 377.132 1305.43 377.132C1304.75 377.132 1304.16 377.027 1303.66 376.817C1303.17 376.607 1302.78 376.3 1302.5 375.896C1302.22 375.493 1302.07 375.001 1302.05 374.422H1303.6C1303.62 374.726 1303.72 374.979 1303.88 375.18C1304.05 375.382 1304.26 375.533 1304.53 375.632C1304.79 375.732 1305.09 375.781 1305.42 375.781C1305.76 375.781 1306.07 375.73 1306.32 375.628C1306.59 375.523 1306.79 375.378 1306.94 375.193C1307.09 375.006 1307.16 374.787 1307.16 374.537C1307.16 374.31 1307.09 374.122 1306.96 373.974C1306.83 373.824 1306.65 373.699 1306.41 373.599C1306.18 373.497 1305.91 373.406 1305.6 373.327L1304.6 373.071C1303.88 372.886 1303.32 372.607 1302.9 372.232C1302.48 371.854 1302.28 371.352 1302.28 370.727C1302.28 370.213 1302.41 369.763 1302.69 369.376C1302.97 368.99 1303.36 368.69 1303.84 368.477C1304.32 368.261 1304.87 368.153 1305.48 368.153C1306.1 368.153 1306.64 368.261 1307.11 368.477C1307.58 368.69 1307.94 368.987 1308.21 369.368C1308.48 369.746 1308.62 370.18 1308.62 370.672H1307.1ZM1309.77 369.598V368.273H1316.73V369.598H1314.04V377H1312.47V369.598H1309.77ZM1318.14 377H1316.45L1319.53 368.273H1321.48L1324.56 377H1322.87L1320.54 370.062H1320.47L1318.14 377ZM1318.2 373.578H1322.8V374.848H1318.2V373.578ZM1324.27 369.598V368.273H1331.23V369.598H1328.53V377H1326.96V369.598H1324.27ZM1338.07 368.273H1339.65V373.974C1339.65 374.599 1339.51 375.149 1339.21 375.624C1338.92 376.098 1338.51 376.469 1337.98 376.736C1337.44 377 1336.82 377.132 1336.11 377.132C1335.4 377.132 1334.78 377 1334.25 376.736C1333.72 376.469 1333.3 376.098 1333.01 375.624C1332.72 375.149 1332.57 374.599 1332.57 373.974V368.273H1334.15V373.842C1334.15 374.206 1334.23 374.53 1334.39 374.814C1334.55 375.098 1334.78 375.321 1335.07 375.483C1335.37 375.642 1335.71 375.722 1336.11 375.722C1336.51 375.722 1336.86 375.642 1337.15 375.483C1337.45 375.321 1337.68 375.098 1337.83 374.814C1337.99 374.53 1338.07 374.206 1338.07 373.842V368.273ZM1346.12 370.672C1346.08 370.3 1345.91 370.01 1345.61 369.803C1345.32 369.595 1344.94 369.491 1344.47 369.491C1344.14 369.491 1343.86 369.541 1343.62 369.641C1343.39 369.74 1343.21 369.875 1343.08 370.045C1342.96 370.216 1342.89 370.411 1342.89 370.629C1342.89 370.811 1342.93 370.969 1343.01 371.102C1343.1 371.236 1343.21 371.349 1343.36 371.443C1343.5 371.534 1343.66 371.611 1343.84 371.673C1344.02 371.736 1344.19 371.788 1344.37 371.831L1345.19 372.036C1345.52 372.112 1345.84 372.216 1346.14 372.347C1346.45 372.477 1346.72 372.642 1346.96 372.841C1347.21 373.04 1347.4 373.28 1347.54 373.561C1347.69 373.842 1347.76 374.172 1347.76 374.55C1347.76 375.061 1347.63 375.511 1347.36 375.901C1347.1 376.287 1346.72 376.589 1346.23 376.808C1345.74 377.024 1345.14 377.132 1344.44 377.132C1343.77 377.132 1343.18 377.027 1342.68 376.817C1342.18 376.607 1341.79 376.3 1341.51 375.896C1341.23 375.493 1341.08 375.001 1341.06 374.422H1342.61C1342.64 374.726 1342.73 374.979 1342.89 375.18C1343.06 375.382 1343.27 375.533 1343.54 375.632C1343.8 375.732 1344.1 375.781 1344.43 375.781C1344.78 375.781 1345.08 375.73 1345.34 375.628C1345.6 375.523 1345.8 375.378 1345.95 375.193C1346.1 375.006 1346.17 374.787 1346.18 374.537C1346.17 374.31 1346.11 374.122 1345.97 373.974C1345.84 373.824 1345.66 373.699 1345.43 373.599C1345.19 373.497 1344.92 373.406 1344.61 373.327L1343.61 373.071C1342.9 372.886 1342.33 372.607 1341.91 372.232C1341.49 371.854 1341.29 371.352 1341.29 370.727C1341.29 370.213 1341.43 369.763 1341.7 369.376C1341.99 368.99 1342.37 368.69 1342.85 368.477C1343.33 368.261 1343.88 368.153 1344.49 368.153C1345.11 368.153 1345.65 368.261 1346.12 368.477C1346.59 368.69 1346.96 368.987 1347.22 369.368C1347.49 369.746 1347.63 370.18 1347.64 370.672H1346.12Z" fill="#6B7280"/>
<mask id="path-53-inside-10_624_39566" fill="white">
<path d="M257.5 395H1457.5V439H257.5V395Z"/>
</mask>
<path d="M257.5 395H1457.5V439H257.5V395Z" fill="#F9FAFB"/>
<path d="M257.5 395V394H256.5V395H257.5ZM257.5 395V396H1457.5V395V394H257.5V395ZM257.5 439H258.5V395H257.5H256.5V439H257.5Z" fill="#E5E7EB" mask="url(#path-53-inside-10_624_39566)"/>
<rect x="281.5" y="407" width="143.682" height="20" rx="4" fill="#E5E7EB"/>
<mask id="path-56-inside-11_624_39566" fill="white">
<path d="M257.5 439H917.5V507H257.5V439Z"/>
</mask>
<path d="M257.5 439H917.5V507H257.5V439Z" fill="white"/>
<path d="M257.5 439V438H256.5V439H257.5ZM917.5 439H918.5V438H917.5V439ZM257.5 439V440H917.5V439V438H257.5V439ZM917.5 439H916.5V507H917.5H918.5V439H917.5ZM257.5 507H258.5V439H257.5H256.5V507H257.5Z" fill="#E5E7EB" mask="url(#path-56-inside-11_624_39566)"/>
<rect x="281.5" y="451" width="62" height="20" rx="4" fill="#F9FAFB"/>
<rect x="347.5" y="451" width="284.725" height="20" rx="4" fill="#F3F4F6"/>
<rect x="347.5" y="475" width="153.818" height="20" rx="4" fill="#F9FAFB"/>
<mask id="path-61-inside-12_624_39566" fill="white">
<path d="M917.5 439H1097.5V507H917.5V439Z"/>
</mask>
<path d="M917.5 439H1097.5V507H917.5V439Z" fill="white"/>
<path d="M917.5 439V438H916.5V439H917.5ZM1097.5 439H1098.5V438H1097.5V439ZM917.5 439V440H1097.5V439V438H917.5V439ZM1097.5 439H1096.5V507H1097.5H1098.5V439H1097.5ZM917.5 507H918.5V439H917.5H916.5V507H917.5Z" fill="#E5E7EB" mask="url(#path-61-inside-12_624_39566)"/>
<circle cx="951.5" cy="473" r="10" fill="#F3F4F6"/>
<rect x="969.5" y="463" width="96.9844" height="20" rx="4" fill="#F3F4F6"/>
<mask id="path-65-inside-13_624_39566" fill="white">
<path d="M1097.5 439H1277.5V507H1097.5V439Z"/>
</mask>
<path d="M1097.5 439H1277.5V507H1097.5V439Z" fill="white"/>
<path d="M1097.5 439V438H1096.5V439H1097.5ZM1277.5 439H1278.5V438H1277.5V439ZM1097.5 439V440H1277.5V439V438H1097.5V439ZM1277.5 439H1276.5V507H1277.5H1278.5V439H1277.5ZM1097.5 507H1098.5V439H1097.5H1096.5V507H1097.5Z" fill="#E5E7EB" mask="url(#path-65-inside-13_624_39566)"/>
<circle cx="1131.5" cy="473" r="10" fill="#F3F4F6"/>
<rect x="1149.5" y="463" width="96.9844" height="20" rx="4" fill="#F3F4F6"/>
<mask id="path-69-inside-14_624_39566" fill="white">
<path d="M1277.5 439H1457.5V507H1277.5V439Z"/>
</mask>
<path d="M1277.5 439H1457.5V507H1277.5V439Z" fill="white"/>
<path d="M1277.5 439V438H1276.5V439H1277.5ZM1457.5 439H1458.5V438H1457.5V439ZM1277.5 439V440H1457.5V439V438H1277.5V439ZM1457.5 439H1456.5V507H1457.5H1458.5V439H1457.5ZM1277.5 507H1278.5V439H1277.5H1276.5V507H1277.5Z" fill="#E5E7EB" mask="url(#path-69-inside-14_624_39566)"/>
<circle cx="1311.5" cy="473" r="10" fill="#F3F4F6"/>
<rect x="1329.5" y="463" width="96.9844" height="20" rx="4" fill="#F3F4F6"/>
<mask id="path-73-inside-15_624_39566" fill="white">
<path d="M257.5 507H917.5V575H257.5V507Z"/>
</mask>
<path d="M257.5 507H917.5V575H257.5V507Z" fill="white"/>
<path d="M257.5 507V506H256.5V507H257.5ZM917.5 507H918.5V506H917.5V507ZM257.5 507V508H917.5V507V506H257.5V507ZM917.5 507H916.5V575H917.5H918.5V507H917.5ZM257.5 575H258.5V507H257.5H256.5V575H257.5Z" fill="#E5E7EB" mask="url(#path-73-inside-15_624_39566)"/>
<rect x="281.5" y="519" width="62" height="20" rx="4" fill="#F9FAFB"/>
<rect x="347.5" y="519" width="284.725" height="20" rx="4" fill="#F3F4F6"/>
<rect x="347.5" y="543" width="153.818" height="20" rx="4" fill="#F9FAFB"/>
<mask id="path-78-inside-16_624_39566" fill="white">
<path d="M917.5 507H1097.5V575H917.5V507Z"/>
</mask>
<path d="M917.5 507H1097.5V575H917.5V507Z" fill="white"/>
<path d="M917.5 507V506H916.5V507H917.5ZM1097.5 507H1098.5V506H1097.5V507ZM917.5 507V508H1097.5V507V506H917.5V507ZM1097.5 507H1096.5V575H1097.5H1098.5V507H1097.5ZM917.5 575H918.5V507H917.5H916.5V575H917.5Z" fill="#E5E7EB" mask="url(#path-78-inside-16_624_39566)"/>
<circle cx="951.5" cy="541" r="10" fill="#F3F4F6"/>
<rect x="969.5" y="531" width="96.9844" height="20" rx="4" fill="#F3F4F6"/>
<mask id="path-82-inside-17_624_39566" fill="white">
<path d="M1097.5 507H1277.5V575H1097.5V507Z"/>
</mask>
<path d="M1097.5 507H1277.5V575H1097.5V507Z" fill="white"/>
<path d="M1097.5 507V506H1096.5V507H1097.5ZM1277.5 507H1278.5V506H1277.5V507ZM1097.5 507V508H1277.5V507V506H1097.5V507ZM1277.5 507H1276.5V575H1277.5H1278.5V507H1277.5ZM1097.5 575H1098.5V507H1097.5H1096.5V575H1097.5Z" fill="#E5E7EB" mask="url(#path-82-inside-17_624_39566)"/>
<circle cx="1131.5" cy="541" r="10" fill="#F3F4F6"/>
<rect x="1149.5" y="531" width="96.9844" height="20" rx="4" fill="#F3F4F6"/>
<mask id="path-86-inside-18_624_39566" fill="white">
<path d="M1277.5 507H1457.5V575H1277.5V507Z"/>
</mask>
<path d="M1277.5 507H1457.5V575H1277.5V507Z" fill="white"/>
<path d="M1277.5 507V506H1276.5V507H1277.5ZM1457.5 507H1458.5V506H1457.5V507ZM1277.5 507V508H1457.5V507V506H1277.5V507ZM1457.5 507H1456.5V575H1457.5H1458.5V507H1457.5ZM1277.5 575H1278.5V507H1277.5H1276.5V575H1277.5Z" fill="#E5E7EB" mask="url(#path-86-inside-18_624_39566)"/>
<circle cx="1311.5" cy="541" r="10" fill="#F3F4F6"/>
<rect x="1329.5" y="531" width="96.9844" height="20" rx="4" fill="#F3F4F6"/>
<mask id="path-90-inside-19_624_39566" fill="white">
<path d="M257.5 575H917.5V643H257.5V575Z"/>
</mask>
<path d="M257.5 575H917.5V643H257.5V575Z" fill="white"/>
<path d="M257.5 575V574H256.5V575H257.5ZM917.5 575H918.5V574H917.5V575ZM257.5 575V576H917.5V575V574H257.5V575ZM917.5 575H916.5V643H917.5H918.5V575H917.5ZM257.5 643H258.5V575H257.5H256.5V643H257.5Z" fill="#E5E7EB" mask="url(#path-90-inside-19_624_39566)"/>
<rect x="281.5" y="587" width="62" height="20" rx="4" fill="#F9FAFB"/>
<rect x="347.5" y="587" width="284.725" height="20" rx="4" fill="#F3F4F6"/>
<rect x="347.5" y="611" width="153.818" height="20" rx="4" fill="#F9FAFB"/>
<mask id="path-95-inside-20_624_39566" fill="white">
<path d="M917.5 575H1097.5V643H917.5V575Z"/>
</mask>
<path d="M917.5 575H1097.5V643H917.5V575Z" fill="white"/>
<path d="M917.5 575V574H916.5V575H917.5ZM1097.5 575H1098.5V574H1097.5V575ZM917.5 575V576H1097.5V575V574H917.5V575ZM1097.5 575H1096.5V643H1097.5H1098.5V575H1097.5ZM917.5 643H918.5V575H917.5H916.5V643H917.5Z" fill="#E5E7EB" mask="url(#path-95-inside-20_624_39566)"/>
<circle cx="951.5" cy="609" r="10" fill="#F3F4F6"/>
<rect x="969.5" y="599" width="96.9844" height="20" rx="4" fill="#F3F4F6"/>
<mask id="path-99-inside-21_624_39566" fill="white">
<path d="M1097.5 575H1277.5V643H1097.5V575Z"/>
</mask>
<path d="M1097.5 575H1277.5V643H1097.5V575Z" fill="white"/>
<path d="M1097.5 575V574H1096.5V575H1097.5ZM1277.5 575H1278.5V574H1277.5V575ZM1097.5 575V576H1277.5V575V574H1097.5V575ZM1277.5 575H1276.5V643H1277.5H1278.5V575H1277.5ZM1097.5 643H1098.5V575H1097.5H1096.5V643H1097.5Z" fill="#E5E7EB" mask="url(#path-99-inside-21_624_39566)"/>
<circle cx="1131.5" cy="609" r="10" fill="#F3F4F6"/>
<rect x="1149.5" y="599" width="96.9844" height="20" rx="4" fill="#F3F4F6"/>
<mask id="path-103-inside-22_624_39566" fill="white">
<path d="M1277.5 575H1457.5V643H1277.5V575Z"/>
</mask>
<path d="M1277.5 575H1457.5V643H1277.5V575Z" fill="white"/>
<path d="M1277.5 575V574H1276.5V575H1277.5ZM1457.5 575H1458.5V574H1457.5V575ZM1277.5 575V576H1457.5V575V574H1277.5V575ZM1457.5 575H1456.5V643H1457.5H1458.5V575H1457.5ZM1277.5 643H1278.5V575H1277.5H1276.5V643H1277.5Z" fill="#E5E7EB" mask="url(#path-103-inside-22_624_39566)"/>
<circle cx="1311.5" cy="609" r="10" fill="#F3F4F6"/>
<rect x="1329.5" y="599" width="96.9844" height="20" rx="4" fill="#F3F4F6"/>
<mask id="path-107-inside-23_624_39566" fill="white">
<path d="M257.5 643H917.5V711H257.5V643Z"/>
</mask>
<path d="M257.5 643H917.5V711H257.5V643Z" fill="white"/>
<path d="M257.5 643V642H256.5V643H257.5ZM917.5 643H918.5V642H917.5V643ZM257.5 643V644H917.5V643V642H257.5V643ZM917.5 643H916.5V711H917.5H918.5V643H917.5ZM257.5 711H258.5V643H257.5H256.5V711H257.5Z" fill="#E5E7EB" mask="url(#path-107-inside-23_624_39566)"/>
<rect x="281.5" y="655" width="62" height="20" rx="4" fill="#F9FAFB"/>
<rect x="347.5" y="655" width="284.725" height="20" rx="4" fill="#F3F4F6"/>
<rect x="347.5" y="679" width="153.818" height="20" rx="4" fill="#F9FAFB"/>
<mask id="path-112-inside-24_624_39566" fill="white">
<path d="M917.5 643H1097.5V711H917.5V643Z"/>
</mask>
<path d="M917.5 643H1097.5V711H917.5V643Z" fill="white"/>
<path d="M917.5 643V642H916.5V643H917.5ZM1097.5 643H1098.5V642H1097.5V643ZM917.5 643V644H1097.5V643V642H917.5V643ZM1097.5 643H1096.5V711H1097.5H1098.5V643H1097.5ZM917.5 711H918.5V643H917.5H916.5V711H917.5Z" fill="#E5E7EB" mask="url(#path-112-inside-24_624_39566)"/>
<circle cx="951.5" cy="677" r="10" fill="#F3F4F6"/>
<rect x="969.5" y="667" width="96.9844" height="20" rx="4" fill="#F3F4F6"/>
<mask id="path-116-inside-25_624_39566" fill="white">
<path d="M1097.5 643H1277.5V711H1097.5V643Z"/>
</mask>
<path d="M1097.5 643H1277.5V711H1097.5V643Z" fill="white"/>
<path d="M1097.5 643V642H1096.5V643H1097.5ZM1277.5 643H1278.5V642H1277.5V643ZM1097.5 643V644H1277.5V643V642H1097.5V643ZM1277.5 643H1276.5V711H1277.5H1278.5V643H1277.5ZM1097.5 711H1098.5V643H1097.5H1096.5V711H1097.5Z" fill="#E5E7EB" mask="url(#path-116-inside-25_624_39566)"/>
<circle cx="1131.5" cy="677" r="10" fill="#F3F4F6"/>
<rect x="1149.5" y="667" width="96.9844" height="20" rx="4" fill="#F3F4F6"/>
<mask id="path-120-inside-26_624_39566" fill="white">
<path d="M1277.5 643H1457.5V711H1277.5V643Z"/>
</mask>
<path d="M1277.5 643H1457.5V711H1277.5V643Z" fill="white"/>
<path d="M1277.5 643V642H1276.5V643H1277.5ZM1457.5 643H1458.5V642H1457.5V643ZM1277.5 643V644H1457.5V643V642H1277.5V643ZM1457.5 643H1456.5V711H1457.5H1458.5V643H1457.5ZM1277.5 711H1278.5V643H1277.5H1276.5V711H1277.5Z" fill="#E5E7EB" mask="url(#path-120-inside-26_624_39566)"/>
<circle cx="1311.5" cy="677" r="10" fill="#F3F4F6"/>
<rect x="1329.5" y="667" width="96.9844" height="20" rx="4" fill="#F3F4F6"/>
<mask id="path-124-inside-27_624_39566" fill="white">
<path d="M257.5 711H917.5V779H257.5V711Z"/>
</mask>
<path d="M257.5 711H917.5V779H257.5V711Z" fill="white"/>
<path d="M257.5 711V710H256.5V711H257.5ZM917.5 711H918.5V710H917.5V711ZM257.5 711V712H917.5V711V710H257.5V711ZM917.5 711H916.5V779H917.5H918.5V711H917.5ZM257.5 779H258.5V711H257.5H256.5V779H257.5Z" fill="#E5E7EB" mask="url(#path-124-inside-27_624_39566)"/>
<rect x="281.5" y="723" width="62" height="20" rx="4" fill="#F9FAFB"/>
<rect x="347.5" y="723" width="284.725" height="20" rx="4" fill="#F3F4F6"/>
<rect x="347.5" y="747" width="153.818" height="20" rx="4" fill="#F9FAFB"/>
<mask id="path-129-inside-28_624_39566" fill="white">
<path d="M917.5 711H1097.5V779H917.5V711Z"/>
</mask>
<path d="M917.5 711H1097.5V779H917.5V711Z" fill="white"/>
<path d="M917.5 711V710H916.5V711H917.5ZM1097.5 711H1098.5V710H1097.5V711ZM917.5 711V712H1097.5V711V710H917.5V711ZM1097.5 711H1096.5V779H1097.5H1098.5V711H1097.5ZM917.5 779H918.5V711H917.5H916.5V779H917.5Z" fill="#E5E7EB" mask="url(#path-129-inside-28_624_39566)"/>
<circle cx="951.5" cy="745" r="10" fill="#F3F4F6"/>
<rect x="969.5" y="735" width="96.9844" height="20" rx="4" fill="#F3F4F6"/>
<mask id="path-133-inside-29_624_39566" fill="white">
<path d="M1097.5 711H1277.5V779H1097.5V711Z"/>
</mask>
<path d="M1097.5 711H1277.5V779H1097.5V711Z" fill="white"/>
<path d="M1097.5 711V710H1096.5V711H1097.5ZM1277.5 711H1278.5V710H1277.5V711ZM1097.5 711V712H1277.5V711V710H1097.5V711ZM1277.5 711H1276.5V779H1277.5H1278.5V711H1277.5ZM1097.5 779H1098.5V711H1097.5H1096.5V779H1097.5Z" fill="#E5E7EB" mask="url(#path-133-inside-29_624_39566)"/>
<circle cx="1131.5" cy="745" r="10" fill="#F3F4F6"/>
<rect x="1149.5" y="735" width="96.9844" height="20" rx="4" fill="#F3F4F6"/>
<mask id="path-137-inside-30_624_39566" fill="white">
<path d="M1277.5 711H1457.5V779H1277.5V711Z"/>
</mask>
<path d="M1277.5 711H1457.5V779H1277.5V711Z" fill="white"/>
<path d="M1277.5 711V710H1276.5V711H1277.5ZM1457.5 711H1458.5V710H1457.5V711ZM1277.5 711V712H1457.5V711V710H1277.5V711ZM1457.5 711H1456.5V779H1457.5H1458.5V711H1457.5ZM1277.5 779H1278.5V711H1277.5H1276.5V779H1277.5Z" fill="#E5E7EB" mask="url(#path-137-inside-30_624_39566)"/>
<circle cx="1311.5" cy="745" r="10" fill="#F3F4F6"/>
<rect x="1329.5" y="735" width="96.9844" height="20" rx="4" fill="#F3F4F6"/>
<mask id="path-141-inside-31_624_39566" fill="white">
<path d="M257.5 779H917.5V847H257.5V779Z"/>
</mask>
<path d="M257.5 779H917.5V847H257.5V779Z" fill="white"/>
<path d="M257.5 779V778H256.5V779H257.5ZM917.5 779H918.5V778H917.5V779ZM257.5 779V780H917.5V779V778H257.5V779ZM917.5 779H916.5V847H917.5H918.5V779H917.5ZM257.5 847H258.5V779H257.5H256.5V847H257.5Z" fill="#E5E7EB" mask="url(#path-141-inside-31_624_39566)"/>
<rect x="281.5" y="791" width="62" height="20" rx="4" fill="#F9FAFB"/>
<rect x="347.5" y="791" width="284.725" height="20" rx="4" fill="#F3F4F6"/>
<rect x="347.5" y="815" width="153.818" height="20" rx="4" fill="#F9FAFB"/>
<mask id="path-146-inside-32_624_39566" fill="white">
<path d="M917.5 779H1097.5V847H917.5V779Z"/>
</mask>
<path d="M917.5 779H1097.5V847H917.5V779Z" fill="white"/>
<path d="M917.5 779V778H916.5V779H917.5ZM1097.5 779H1098.5V778H1097.5V779ZM917.5 779V780H1097.5V779V778H917.5V779ZM1097.5 779H1096.5V847H1097.5H1098.5V779H1097.5ZM917.5 847H918.5V779H917.5H916.5V847H917.5Z" fill="#E5E7EB" mask="url(#path-146-inside-32_624_39566)"/>
<circle cx="951.5" cy="813" r="10" fill="#F3F4F6"/>
<rect x="969.5" y="803" width="96.9844" height="20" rx="4" fill="#F3F4F6"/>
<mask id="path-150-inside-33_624_39566" fill="white">
<path d="M1097.5 779H1277.5V847H1097.5V779Z"/>
</mask>
<path d="M1097.5 779H1277.5V847H1097.5V779Z" fill="white"/>
<path d="M1097.5 779V778H1096.5V779H1097.5ZM1277.5 779H1278.5V778H1277.5V779ZM1097.5 779V780H1277.5V779V778H1097.5V779ZM1277.5 779H1276.5V847H1277.5H1278.5V779H1277.5ZM1097.5 847H1098.5V779H1097.5H1096.5V847H1097.5Z" fill="#E5E7EB" mask="url(#path-150-inside-33_624_39566)"/>
<circle cx="1131.5" cy="813" r="10" fill="#F3F4F6"/>
<rect x="1149.5" y="803" width="96.9844" height="20" rx="4" fill="#F3F4F6"/>
<mask id="path-154-inside-34_624_39566" fill="white">
<path d="M1277.5 779H1457.5V847H1277.5V779Z"/>
</mask>
<path d="M1277.5 779H1457.5V847H1277.5V779Z" fill="white"/>
<path d="M1277.5 779V778H1276.5V779H1277.5ZM1457.5 779H1458.5V778H1457.5V779ZM1277.5 779V780H1457.5V779V778H1277.5V779ZM1457.5 779H1456.5V847H1457.5H1458.5V779H1457.5ZM1277.5 847H1278.5V779H1277.5H1276.5V847H1277.5Z" fill="#E5E7EB" mask="url(#path-154-inside-34_624_39566)"/>
<circle cx="1311.5" cy="813" r="10" fill="#F3F4F6"/>
<rect x="1329.5" y="803" width="96.9844" height="20" rx="4" fill="#F3F4F6"/>
<mask id="path-158-inside-35_624_39566" fill="white">
<path d="M257.5 847H917.5V915H257.5V847Z"/>
</mask>
<path d="M257.5 847H917.5V915H257.5V847Z" fill="white"/>
<path d="M257.5 847V846H256.5V847H257.5ZM917.5 847H918.5V846H917.5V847ZM257.5 847V848H917.5V847V846H257.5V847ZM917.5 847H916.5V915H917.5H918.5V847H917.5ZM257.5 915H258.5V847H257.5H256.5V915H257.5Z" fill="#E5E7EB" mask="url(#path-158-inside-35_624_39566)"/>
<rect x="281.5" y="859" width="62" height="20" rx="4" fill="#F9FAFB"/>
<rect x="347.5" y="859" width="284.725" height="20" rx="4" fill="#F3F4F6"/>
<rect x="347.5" y="883" width="153.818" height="20" rx="4" fill="#F9FAFB"/>
<mask id="path-163-inside-36_624_39566" fill="white">
<path d="M917.5 847H1097.5V915H917.5V847Z"/>
</mask>
<path d="M917.5 847H1097.5V915H917.5V847Z" fill="white"/>
<path d="M917.5 847V846H916.5V847H917.5ZM1097.5 847H1098.5V846H1097.5V847ZM917.5 847V848H1097.5V847V846H917.5V847ZM1097.5 847H1096.5V915H1097.5H1098.5V847H1097.5ZM917.5 915H918.5V847H917.5H916.5V915H917.5Z" fill="#E5E7EB" mask="url(#path-163-inside-36_624_39566)"/>
<circle cx="951.5" cy="881" r="10" fill="#F3F4F6"/>
<rect x="969.5" y="871" width="96.9844" height="20" rx="4" fill="#F3F4F6"/>
<mask id="path-167-inside-37_624_39566" fill="white">
<path d="M1097.5 847H1277.5V915H1097.5V847Z"/>
</mask>
<path d="M1097.5 847H1277.5V915H1097.5V847Z" fill="white"/>
<path d="M1097.5 847V846H1096.5V847H1097.5ZM1277.5 847H1278.5V846H1277.5V847ZM1097.5 847V848H1277.5V847V846H1097.5V847ZM1277.5 847H1276.5V915H1277.5H1278.5V847H1277.5ZM1097.5 915H1098.5V847H1097.5H1096.5V915H1097.5Z" fill="#E5E7EB" mask="url(#path-167-inside-37_624_39566)"/>
<circle cx="1131.5" cy="881" r="10" fill="#F3F4F6"/>
<rect x="1149.5" y="871" width="96.9844" height="20" rx="4" fill="#F3F4F6"/>
<mask id="path-171-inside-38_624_39566" fill="white">
<path d="M1277.5 847H1457.5V915H1277.5V847Z"/>
</mask>
<path d="M1277.5 847H1457.5V915H1277.5V847Z" fill="white"/>
<path d="M1277.5 847V846H1276.5V847H1277.5ZM1457.5 847H1458.5V846H1457.5V847ZM1277.5 847V848H1457.5V847V846H1277.5V847ZM1457.5 847H1456.5V915H1457.5H1458.5V847H1457.5ZM1277.5 915H1278.5V847H1277.5H1276.5V915H1277.5Z" fill="#E5E7EB" mask="url(#path-171-inside-38_624_39566)"/>
<circle cx="1311.5" cy="881" r="10" fill="#F3F4F6"/>
<rect x="1329.5" y="871" width="96.9844" height="20" rx="4" fill="#F3F4F6"/>
</g>
</g>
<defs>
<filter id="filter0_d_624_39566" x="253.5" y="111" width="607" height="169" filterUnits="userSpaceOnUse" color-interpolation-filters="sRGB">
<feFlood flood-opacity="0" result="BackgroundImageFix"/>
<feColorMatrix in="SourceAlpha" type="matrix" values="0 0 0 0 0 0 0 0 0 0 0 0 0 0 0 0 0 0 127 0" result="hardAlpha"/>
<feOffset dy="1"/>
<feGaussianBlur stdDeviation="2"/>
<feComposite in2="hardAlpha" operator="out"/>
<feColorMatrix type="matrix" values="0 0 0 0 0.0470588 0 0 0 0 0.0470588 0 0 0 0 0.0509804 0 0 0 0.05 0"/>
<feBlend mode="normal" in2="BackgroundImageFix" result="effect1_dropShadow_624_39566"/>
<feBlend mode="normal" in="SourceGraphic" in2="effect1_dropShadow_624_39566" result="shape"/>
</filter>
<filter id="filter1_d_624_39566" x="864.5" y="111" width="597" height="169" filterUnits="userSpaceOnUse" color-interpolation-filters="sRGB">
<feFlood flood-opacity="0" result="BackgroundImageFix"/>
<feColorMatrix in="SourceAlpha" type="matrix" values="0 0 0 0 0 0 0 0 0 0 0 0 0 0 0 0 0 0 127 0" result="hardAlpha"/>
<feOffset dy="1"/>
<feGaussianBlur stdDeviation="2"/>
<feComposite in2="hardAlpha" operator="out"/>
<feColorMatrix type="matrix" values="0 0 0 0 0.0470588 0 0 0 0 0.0470588 0 0 0 0 0.0509804 0 0 0 0.05 0"/>
<feBlend mode="normal" in2="BackgroundImageFix" result="effect1_dropShadow_624_39566"/>
<feBlend mode="normal" in="SourceGraphic" in2="effect1_dropShadow_624_39566" result="shape"/>
</filter>
<filter id="filter2_d_624_39566" x="253.5" y="348" width="1208" height="572" filterUnits="userSpaceOnUse" color-interpolation-filters="sRGB">
<feFlood flood-opacity="0" result="BackgroundImageFix"/>
<feColorMatrix in="SourceAlpha" type="matrix" values="0 0 0 0 0 0 0 0 0 0 0 0 0 0 0 0 0 0 127 0" result="hardAlpha"/>
<feOffset dy="1"/>
<feGaussianBlur stdDeviation="2"/>
<feComposite in2="hardAlpha" operator="out"/>
<feColorMatrix type="matrix" values="0 0 0 0 0.0470588 0 0 0 0 0.0470588 0 0 0 0 0.0509804 0 0 0 0.05 0"/>
<feBlend mode="normal" in2="BackgroundImageFix" result="effect1_dropShadow_624_39566"/>
<feBlend mode="normal" in="SourceGraphic" in2="effect1_dropShadow_624_39566" result="shape"/>
</filter>
<linearGradient id="paint0_linear_624_39566" x1="783.834" y1="102" x2="783.834" y2="-1.879e-06" gradientUnits="userSpaceOnUse">
<stop stop-color="white"/>
<stop offset="1" stop-color="#EAF0FF"/>
</linearGradient>
<clipPath id="clip0_624_39566">
<rect width="1653" height="917" fill="white"/>
</clipPath>
</defs>
</svg>
