<svg width="1570" height="672" viewBox="0 0 1570 672" fill="none" xmlns="http://www.w3.org/2000/svg">
<path d="M0.769531 427.815H246.147C335.328 427.815 344.697 388.722 415.858 260.444C504.811 100.096 942.549 448.882 706.123 558.902C469.698 668.922 412.87 630.128 497.788 436.007C582.706 241.887 754.111 59.1311 530.56 76.6875C307.009 94.2438 251.999 308.431 461.505 348.226C671.011 388.02 432.244 639.661 605.467 667.751C778.69 695.841 585.57 500.381 661.647 427.815C737.725 355.248 748.259 406.747 892.221 427.815C1036.18 448.882 1101.73 245.228 892.221 245.228C682.715 245.228 1001.07 354.078 810.291 363.441C619.512 372.805 530.56 210.116 706.123 176.173C881.687 142.231 923.822 289.705 1053.74 225.331C1183.66 160.958 1083 -66.1042 1011.6 21.6776C940.208 109.459 902.755 410.259 1128.65 348.226C1354.54 286.193 1311.23 629.127 1114.6 583.48C917.97 537.834 779.984 216.921 1011.6 260.444C1286.24 312.05 932.905 427.815 1569.14 427.815" stroke="#6C258D" stroke-width="3"/>
</svg>
