<svg width="129" height="30" viewBox="0 0 129 30" fill="none" xmlns="http://www.w3.org/2000/svg">
<mask id="mask0_526_36948" style="mask-type:luminance" maskUnits="userSpaceOnUse" x="0" y="-1" width="31" height="32">
<path d="M30.671 -0.00231934H0V30.0023H30.671V-0.00231934Z" fill="white"/>
</mask>
<g mask="url(#mask0_526_36948)">
<path d="M22.4921 -0.00231934H8.17893C3.66183 -0.00231934 0 3.57995 0 7.99891V22.0011C0 26.42 3.66183 30.0023 8.17893 30.0023H22.4921C27.0092 30.0023 30.671 26.42 30.671 22.0011V7.99891C30.671 3.57995 27.0092 -0.00231934 22.4921 -0.00231934Z" fill="url(#paint0_linear_526_36948)"/>
<path d="M19.1914 7.53699L21.4574 9.75379C24.3844 12.6171 24.4088 17.252 21.5122 20.1448L19.1914 22.4624" stroke="white" stroke-width="3.2391" stroke-linecap="round"/>
<path d="M5.50586 22.1597V7.85818C5.50586 6.87075 6.63458 6.28521 7.47011 6.83921L17.7271 13.6399C18.443 14.1146 18.4673 15.1382 17.7744 15.6449L7.51755 23.1455C6.68778 23.7524 5.50586 23.1731 5.50586 22.1597Z" fill="white"/>
</g>
<path d="M51.0931 7.49548L40.7329 20.7381V15.7823L47.1276 7.49548H51.0931ZM41.5841 7.49548V22.5255H38.2207V7.49548H41.5841ZM43.7641 16.5338L45.9026 13.6497L51.1346 22.5255H47.2521L43.7641 16.5338Z" fill="#27272A"/>
<path d="M55.7423 22.5251H52.5449V12.3697H55.5554L55.763 13.4258C56.0814 12.9925 56.5174 12.654 57.071 12.4103C57.6385 12.1665 58.2614 12.0447 58.9396 12.0447C60.1715 12.0447 61.1265 12.417 61.8047 13.1618C62.4968 13.893 62.8428 14.922 62.8428 16.249V22.5251H59.6455V17.0005C59.6455 16.3641 59.4794 15.8563 59.1472 15.4772C58.815 15.0845 58.3721 14.8882 57.8184 14.8882C57.1817 14.8882 56.6765 15.0778 56.3028 15.4569C55.9291 15.8225 55.7423 16.3235 55.7423 16.9599V22.5251Z" fill="#27272A"/>
<path d="M64.5762 17.4269C64.5762 16.3572 64.8184 15.4229 65.3028 14.624C65.8011 13.8115 66.4793 13.1819 67.3375 12.7351C68.2095 12.2882 69.1992 12.0648 70.3065 12.0648C71.4138 12.0648 72.3965 12.2882 73.2546 12.7351C74.1128 13.1819 74.7841 13.8115 75.2686 14.624C75.7668 15.4229 76.016 16.3572 76.016 17.4269C76.016 18.4966 75.7668 19.4309 75.2686 20.2298C74.7841 21.0287 74.1128 21.6515 73.2546 22.0984C72.3965 22.5452 71.4138 22.7686 70.3065 22.7686C69.1992 22.7686 68.2095 22.5452 67.3375 22.0984C66.4793 21.6515 65.8011 21.0287 65.3028 20.2298C64.8184 19.4309 64.5762 18.4966 64.5762 17.4269ZM67.7943 17.4066C67.7943 17.9211 67.8981 18.3747 68.1057 18.7674C68.3272 19.1465 68.6247 19.4444 68.9985 19.6611C69.3722 19.8642 69.8082 19.9657 70.3065 19.9657C70.8047 19.9657 71.2407 19.8642 71.6145 19.6611C71.9882 19.4444 72.2788 19.1465 72.4865 18.7674C72.6941 18.3747 72.7979 17.9211 72.7979 17.4066C72.7979 16.892 72.6941 16.4452 72.4865 16.0661C72.2788 15.6869 71.9882 15.3958 71.6145 15.1927C71.2407 14.976 70.8047 14.8677 70.3065 14.8677C69.8082 14.8677 69.3722 14.976 68.9985 15.1927C68.6247 15.3958 68.3272 15.6869 68.1057 16.0661C67.8981 16.4452 67.7943 16.892 67.7943 17.4066Z" fill="#27272A"/>
<path d="M81.0684 22.5253H77.8711V7.21094H81.0684V22.5253Z" fill="#27272A"/>
<path d="M86.4753 22.5253H83.4648V7.21094H86.6622V13.5479C86.9805 13.0875 87.4511 12.7219 88.074 12.4511C88.7107 12.1668 89.4028 12.0246 90.1502 12.0246C91.1191 12.0246 91.9565 12.2548 92.6624 12.7152C93.3821 13.1755 93.9358 13.8187 94.3233 14.6447C94.7109 15.4707 94.9047 16.4388 94.9047 17.5491C94.9047 18.5918 94.6901 19.5125 94.261 20.3114C93.8458 21.0968 93.2576 21.7061 92.4963 22.1394C91.7489 22.5727 90.8838 22.7893 89.901 22.7893C89.1813 22.7893 88.5238 22.6472 87.9287 22.3628C87.3473 22.0649 86.9182 21.6858 86.6414 21.2254L86.4753 22.5253ZM86.6829 17.3867C86.6829 17.8877 86.7868 18.3345 86.9944 18.7272C87.2158 19.1063 87.5134 19.4042 87.8871 19.6208C88.2747 19.824 88.7176 19.9255 89.2159 19.9255C89.728 19.9255 90.164 19.8172 90.5239 19.6005C90.8976 19.3839 91.1814 19.086 91.3751 18.7069C91.5828 18.3277 91.6866 17.8877 91.6866 17.3867C91.6866 16.8857 91.5828 16.4456 91.3751 16.0665C91.1814 15.6873 90.8976 15.3894 90.5239 15.1728C90.164 14.9561 89.728 14.8478 89.2159 14.8478C88.7176 14.8478 88.2747 14.9561 87.8871 15.1728C87.5134 15.3759 87.2158 15.667 86.9944 16.0461C86.7868 16.4253 86.6829 16.8721 86.6829 17.3867Z" fill="#27272A"/>
<path d="M99.8816 22.7891C98.7881 22.7891 97.9161 22.498 97.2656 21.9157C96.6289 21.32 96.3105 20.5278 96.3105 19.5394C96.3105 18.6051 96.6358 17.8603 97.2864 17.3052C97.9507 16.75 98.9058 16.425 100.151 16.3303L103.058 16.1068V15.9444C103.058 15.6058 102.989 15.3283 102.851 15.1116C102.712 14.8814 102.511 14.7122 102.248 14.6038C101.999 14.482 101.681 14.421 101.293 14.421C100.615 14.421 100.096 14.5429 99.7363 14.7866C99.3902 15.0304 99.2172 15.3824 99.2172 15.8428H96.5597C96.5597 15.071 96.7604 14.4007 97.1618 13.832C97.5632 13.2633 98.1307 12.8233 98.8643 12.5118C99.6117 12.2004 100.477 12.0447 101.459 12.0447C102.47 12.0447 103.321 12.2207 104.013 12.5728C104.719 12.9248 105.252 13.4394 105.612 14.1164C105.986 14.7934 106.172 15.6194 106.172 16.5943V22.5251H103.349L103.141 21.1845C102.975 21.6449 102.581 22.0308 101.958 22.3423C101.349 22.6402 100.657 22.7891 99.8816 22.7891ZM101.003 20.4737C101.612 20.4737 102.11 20.3315 102.498 20.0471C102.885 19.7493 103.079 19.3092 103.079 18.7269V18.1785L101.459 18.3207C100.767 18.3749 100.276 18.49 99.9854 18.666C99.7086 18.8285 99.5702 19.0722 99.5702 19.3972C99.5702 19.7628 99.6878 20.0336 99.9231 20.2096C100.158 20.3857 100.518 20.4737 101.003 20.4737Z" fill="#27272A"/>
<path d="M107.719 19.316H110.75C110.778 19.668 110.923 19.9456 111.186 20.1487C111.449 20.3518 111.823 20.4534 112.307 20.4534C112.805 20.4534 113.172 20.3721 113.408 20.2096C113.643 20.0471 113.76 19.8373 113.76 19.58C113.76 19.431 113.698 19.2821 113.574 19.1332C113.463 18.9842 113.214 18.8691 112.826 18.7879L110.916 18.3817C109.961 18.1785 109.248 17.8536 108.778 17.4067C108.307 16.9464 108.072 16.2693 108.072 15.3757C108.072 14.6715 108.259 14.0758 108.632 13.5883C109.02 13.0873 109.539 12.7082 110.189 12.4509C110.84 12.1801 111.58 12.0447 112.411 12.0447C113.214 12.0447 113.92 12.1869 114.529 12.4712C115.152 12.7556 115.636 13.155 115.982 13.6695C116.328 14.1841 116.501 14.7866 116.501 15.4772H113.47C113.47 15.1252 113.366 14.8476 113.158 14.6445C112.951 14.4278 112.653 14.3195 112.266 14.3195C111.906 14.3195 111.615 14.4075 111.394 14.5835C111.186 14.746 111.082 14.9627 111.082 15.2335C111.082 15.6668 111.456 15.9647 112.203 16.1272L114.134 16.5334C114.992 16.7094 115.643 17.0141 116.086 17.4474C116.543 17.8671 116.771 18.4832 116.771 19.2956C116.771 20.0133 116.577 20.6362 116.19 21.1642C115.802 21.6923 115.262 22.0985 114.57 22.3829C113.878 22.6537 113.082 22.7891 112.183 22.7891C110.812 22.7891 109.726 22.4709 108.923 21.8345C108.12 21.1845 107.719 20.345 107.719 19.316Z" fill="#27272A"/>
<path d="M123.258 22.7891C122.22 22.7891 121.293 22.5589 120.476 22.0985C119.673 21.6382 119.037 21.0085 118.566 20.2096C118.109 19.3972 117.881 18.4697 117.881 17.427C117.881 16.3709 118.102 15.4434 118.545 14.6445C119.002 13.832 119.632 13.1956 120.435 12.7352C121.237 12.2749 122.158 12.0447 123.196 12.0447C124.289 12.0447 125.231 12.2681 126.02 12.7149C126.808 13.1482 127.417 13.7711 127.847 14.5835C128.276 15.3824 128.49 16.337 128.49 17.4474V18.2395L119.563 18.2801L119.604 16.3506H125.314C125.314 15.809 125.127 15.3824 124.753 15.071C124.379 14.746 123.867 14.5835 123.217 14.5835C122.677 14.5835 122.234 14.6851 121.888 14.8882C121.556 15.0913 121.307 15.4095 121.14 15.8428C120.974 16.2626 120.891 16.8042 120.891 17.4677C120.891 18.4155 121.085 19.1196 121.473 19.58C121.874 20.0268 122.49 20.2502 123.32 20.2502C123.93 20.2502 124.435 20.1487 124.836 19.9456C125.238 19.7425 125.494 19.4581 125.604 19.0925H128.532C128.352 20.2164 127.784 21.1168 126.829 21.7939C125.874 22.4574 124.684 22.7891 123.258 22.7891Z" fill="#27272A"/>
<defs>
<linearGradient id="paint0_linear_526_36948" x1="25.0087" y1="3.38282" x2="5.88367" y2="28.5629" gradientUnits="userSpaceOnUse">
<stop stop-color="#D46BF9"/>
<stop offset="1" stop-color="#6C258D"/>
</linearGradient>
</defs>
</svg>
